<?xml version="1.0" encoding="utf-8"?>
<COLLADA xmlns="http://www.collada.org/2005/11/COLLADASchema" version="1.4.1">
  <asset>
    <contributor>
      <author>Blender User</author>
      <authoring_tool>Blender 2.78.0 commit date:2017-02-24, commit time:14:33, hash:e92f2352830</authoring_tool>
    </contributor>
    <created>2018-03-13T10:36:48</created>
    <modified>2018-03-13T10:36:48</modified>
    <unit name="meter" meter="1"/>
    <up_axis>Z_UP</up_axis>
  </asset>
  <library_images/>
  <library_effects>
    <effect id="vermelho_001-effect">
      <profile_COMMON>
        <technique sid="common">
          <phong>
            <emission>
              <color sid="emission">0.05 0.0 0.0 1</color>    <!-- slight red glow so it's never pure black -->
            </emission>
            <ambient>
              <color sid="ambient">0.8 0.1 0.1 1</color>       <!-- red ambient -->
            </ambient>
            <diffuse>
              <color sid="diffuse">0.8 0.15 0.15 1</color>     <!-- red diffuse -->
            </diffuse>
            <specular>
              <color sid="specular">0.125 0.125 0.125 1</color>
            </specular>
            <shininess>
              <float sid="shininess">50</float>
            </shininess>
            <index_of_refraction>
              <float sid="index_of_refraction">1</float>
            </index_of_refraction>
          </phong>
        </technique>
      </profile_COMMON>
    </effect>
    <effect id="semente_001-effect">
      <profile_COMMON>
        <technique sid="common">
          <phong>
            <emission>
              <color sid="emission">0.05 0.04 0.02 1</color>
            </emission>
            <ambient>
              <color sid="ambient">0.8 0.7422909 0.486784 1</color>   <!-- keep original beige -->
            </ambient>
            <diffuse>
              <color sid="diffuse">0.8 0.7422909 0.486784 1</color>
            </diffuse>
            <specular>
              <color sid="specular">0.125 0.125 0.125 1</color>
            </specular>
            <shininess>
              <float sid="shininess">50</float>
            </shininess>
            <index_of_refraction>
              <float sid="index_of_refraction">1</float>
            </index_of_refraction>
          </phong>
        </technique>
      </profile_COMMON>
    </effect>
  </library_effects>
  <library_materials>
    <material id="vermelho_001-material" name="vermelho_001">
      <instance_effect url="#vermelho_001-effect"/>
    </material>
    <material id="semente_001-material" name="semente_001">
      <instance_effect url="#semente_001-effect"/>
    </material>
  </library_materials>
  <library_geometries>
    <geometry id="Cube_001-mesh" name="Cube.001">
      <mesh>
        <source id="Cube_001-mesh-positions">
          <float_array id="Cube_001-mesh-positions-array" count="876">-0.0116809 -0.006990015 0.003630578 -0.01045984 -0.008268117 0.001850128 -0.01060324 -0.008364439 0.005528569 -0.01234543 -0.005408108 0.005558967 -0.01222205 -0.005277931 0.001880884 -0.01093065 -0.006515741 1.90459e-4 -0.009482204 -0.009753286 0.0038504 -0.01116907 -0.006721377 0.007188856 -0.01303082 -0.003731608 0.003912329 -0.009982585 2.51869e-5 -0.003143787 -0.01131343 -0.001706004 -0.00155884 -0.01149016 0.001693367 -8.91804e-4 -0.008352875 0.001836419 -0.004369795 -0.008153498 -0.001779437 -0.004909634 -0.009785115 -0.003280282 -0.003164172 -0.01255524 -5.49035e-5 6.05732e-4 -0.01012653 0.003301501 -0.002081394 -0.005984604 2.36283e-5 -0.006415665 -0.005193233 0.008494496 -0.003135621 -0.002702713 0.007859289 -0.004900336 -0.005904734 0.006165623 -0.004365563 -0.007401347 0.008923828 -8.8483e-4 -0.004396617 0.01052552 -0.001547098 -0.002258718 0.01002901 -0.003151297 -0.003129303 0.005072832 -0.006410837 -0.008075892 0.006927728 -0.002077877 -0.006453037 0.01073575 6.16163e-4 -6.16715e-5 0.01355701 0.003650367 -0.001806259 0.01314073 0.001898646 -0.001761138 0.01330876 0.005576968 0.001670122 0.01333945 0.00554955 0.001664221 0.01317191 0.00187081 -7.8784e-5 0.01267433 2.09003e-4 -0.003549933 0.01303416 0.003928542 -3.06936e-5 0.01297545 0.00720793 0.003439307 0.0130968 0.003872454 0.004907429 0.008663773 0.01228678 0.00705564 0.009008169 0.01064163 0.004161536 0.01081949 0.01002812 0.002541363 0.00810194 0.01356852 0.00561279 0.006167829 0.01405119 0.007704317 0.006887972 0.01224035 0.006195783 0.01092302 0.008482754 0.002102494 0.01039111 0.0112614 0.002993822 0.005128264 0.01345419 0.005327403 -0.008645236 0.0121876 0.004530847 -0.01067626 0.01055312 0.007535636 -0.009074568 0.009890794 0.006038904 -0.006316304 0.01346051 0.002837002 -0.008010089 0.01399523 0.002392888 -0.01017975 0.01218891 0.006587326 -0.01088649 0.008358955 0.008210062 -0.007078409 0.01111549 0.003263533 -0.005223572 0.01339483 0.005066931 0.008586466 -0.003217935 0.004253804 0.01060307 -0.001616418 0.007297098 0.009055614 -0.001002669 0.005805611 0.006270587 -0.0044595 0.002565622 0.007906556 -0.004942536 0.002103686 0.01006811 -0.003186285 0.006336331 0.01085042 5.13554e-4 0.007992029 0.007071793 -0.002206802 0.003025412 0.005128026 -0.006460249 0.01181513 0.006839156 0.005304396 0.01235628 0.005127191 0.007061839 0.01247966 0.005257427 0.003383815 0.01073747 0.008213639 0.003414273 0.01059406 0.008117377 0.007092595 0.01106482 0.006365001 0.008768677 0.01316505 0.003580868 0.00502789 0.0113033 0.006570637 0.001770198 0.009616374 0.009602546 0.005089879 -0.004932761 -0.008737266 0.01226997 -0.002431452 -0.008057355 0.01403748 -0.005671322 -0.006421387 0.01355451 -0.007162809 -0.009206354 0.01000875 -0.004119634 -0.01075381 0.0106225 -0.001969516 -0.01021885 0.01222383 -0.002891123 -0.005278766 0.01344412 -0.007857859 -0.007222533 0.01124435 -0.006202161 -0.01100116 0.008461534 -0.004773199 -0.008814573 -0.003234744 -0.00547862 -0.006318569 -0.004956364 -0.002407193 -0.00825268 -0.004473626 -0.004027366 -0.01097023 -0.0010221 -0.00692141 -0.009158909 -0.001635611 -0.007570028 -0.007038772 -0.003202795 -0.002859652 -0.005279004 -0.006470322 -0.001968324 -0.01054185 -0.00222373 -0.006061613 -0.01107376 4.92387e-4 1.95871e-4 -0.01370775 0.005284488 -0.001530051 -0.01332271 0.007071912 -0.001535892 -0.0134902 0.003393292 0.001895308 -0.0134595 0.003365755 0.001940548 -0.01329153 0.007044017 2.12984e-4 -0.01282513 0.0087502 -0.003305137 -0.01324754 0.005067825 1.64893e-4 -0.01312619 0.001751244 0.003684103 -0.0131849 0.005011737 0.01192224 -0.006778359 0.003441214 0.01240688 -0.005057156 0.001683354 0.01258665 -0.00518465 0.005358934 0.01089745 -0.008171677 0.005356073 0.01069831 -0.008078455 0.001680374 0.0111137 -0.006318092 1.36048e-5 0.01321786 -0.003496289 0.003701746 0.01145738 -0.006518483 0.00700736 0.009777188 -0.009580612 0.003695785 0.01011675 -1.75943e-4 0.01219576 0.008287727 0.001628756 0.01400452 0.008487105 -0.001987278 0.01346468 0.01162433 -0.001844108 0.009897768 0.01144766 0.001555204 0.01056492 0.009919285 0.003129482 0.01220172 0.006118834 -1.74384e-4 0.01339972 0.0102607 -0.003452301 0.01111894 0.01268941 -9.58525e-5 0.008369386 -0.004821479 0.008576571 0.01236486 -0.005459666 0.006068587 0.01414006 -0.002431631 0.008057355 0.01360839 -0.004144251 0.01074492 0.01009476 -0.006995141 0.008882164 0.01075428 -0.007584512 0.006750941 0.01236301 -0.002806246 0.005076229 0.01350075 -0.002062857 0.0103538 0.01129484 -0.006199777 0.01081198 0.008582174 -0.01178807 0.006627619 0.00549376 -0.01056414 0.007927715 0.007262349 -0.01076322 0.008020877 0.003586769 -0.01245242 0.00503391 0.003583848 -0.01227265 0.004906356 0.007259488 -0.01097953 0.006167352 0.008945524 -0.009643018 0.009429872 0.005244374 -0.01132315 0.006367802 0.001951754 -0.01308363 0.003345489 0.005238533 -0.009872376 -3.5515e-4 0.01235622 -0.01125353 0.001351714 0.01074707 -0.01137995 -0.00205034 0.01008236 -0.008196353 -0.002136826 0.01359856 -0.008053243 0.001482248 0.01413559 -0.009732127 0.00295335 0.01235944 -0.01249575 -3.21642e-4 0.008571445 -0.00997281 -0.003633737 0.01128131 -0.005836069 -2.81562e-4 0.01349562 0.004955768 -0.008727312 -0.003312826 0.007129311 -0.009032964 -0.001748323 0.004278421 -0.01089572 -0.001088738 0.002565801 -0.008208096 -0.004513502 0.005593836 -0.006219327 -0.005045175 0.007718682 -0.006901741 -0.003325462 0.006333947 -0.01096272 3.92936e-4 0.002197146 -0.0105046 -0.002257168 0.002940416 -0.00522691 -0.006516814 0.01000654 2.04394e-4 -0.003304183 0.008187413 -0.001633048 -0.005040705 0.008330523 0.001986086 -0.004503667 0.01151412 0.0018996 -0.001076281 0.01138782 -0.001502454 -0.001740992 0.009866297 -0.003104031 -0.003321826 0.005970299 1.30806e-4 -0.006511688 0.01010704 0.003482878 -0.002243638 0.01262998 1.70886e-4 4.03695e-4 -0.01075285 -0.004763901 -0.001392841 -0.01213139 -0.003444612 1.8321e-4 -0.01313191 -0.001883268 0.002258181 -0.008395433 -0.004987776 -0.003836572 -0.006489813 -0.003850758 -0.005682647 -0.003870606 -0.002295434 -0.00739181 -0.009324193 -0.00718832 -0.001417875 -0.008825659 -0.009054005 1.25498e-4 -0.007927715 -0.01071435 0.002167284 -0.001487255 0.01162099 -0.001377046 -0.003329515 0.0121203 1.98245e-4 -0.00518471 0.01217031 0.002271652 0.00132656 0.01164633 -0.001399636 0.003181219 0.01217871 1.46009e-4 0.005065262 0.01226216 0.002189517 -7.87885e-5 0.009719073 -0.003822386 -6.99075e-5 0.007502079 -0.00567162 -5.1843e-5 0.004457533 -0.007385194 0.008529663 0.004837036 0.01289016 0.006623983 0.003699958 0.01399701 0.004004836 0.002144694 0.0134871 0.01088708 0.004613161 0.01038324 0.01226562 0.003293812 0.008783221 0.01326614 0.001732528 0.006693005 0.009458363 0.00703758 0.01040828 0.008959889 0.008903264 0.008840918 0.008061945 0.01056361 0.006783843 0.008801817 0.005135357 -0.002739906 0.006787598 0.003966689 -0.005001366 0.003990948 0.002335131 -0.007172286 -0.001192331 -0.01179707 0.0103901 -0.003047049 -0.01232945 0.008820414 -0.004931092 -0.0124129 0.00676167 0.001621425 -0.01177179 0.01036751 0.003463685 -0.0122711 0.0087682 0.00531888 -0.01232111 0.006679356 3.16096e-5 -0.004666388 -0.007178962 7.35155e-5 -0.007906198 -0.00501281 1.08686e-4 -0.01023721 -0.002754867 0.01088309 -0.004569888 -0.00156641 0.01225948 -0.003225862 -1.24723e-5 0.01326209 -0.001646578 0.002046406 0.009497821 -0.00701946 -0.001568794 0.009054303 -0.008893728 -1.79485e-5 0.008216142 -0.01056963 0.002037703 -0.008364677 0.004685521 0.0130257 -0.006417334 0.003583133 0.01410174 -0.003752589 0.002075076 0.01354926 -0.009363651 0.006868779 0.01055926 -0.008920133 0.008742988 0.008984386 -0.008081972 0.01041889 0.006913304 -0.01074886 0.004419207 0.01055687 -0.01212525 0.003075182 0.008978903 -0.01312786 0.001495838 0.006904721 0.008498907 -0.00483638 -0.003972113 0.006551504 -0.003733873 -0.005787253 0.003886759 -0.002225816 -0.007453978 -0.01101416 -0.005064368 0.009037673 -0.01229727 -0.003701925 0.007690966 -0.01318091 -0.002028763 0.006178021 -0.01323652 0.001639962 0.002986133 -0.0124042 0.003328502 0.001474559 -0.01116383 0.004713714 1.31719e-4 -0.008857309 0.004977107 -0.002598345 -0.006851315 0.003844439 -0.004892051 -0.004051983 0.002263069 -0.007107734 -0.001219034 -0.01216149 -4.18946e-5 -0.003021419 -0.01259297 0.001310825 -0.004889786 -0.01252341 0.00284034 -0.008046627 -0.01074105 0.006088435 -0.009070277 -0.009177744 0.00763458 -0.009630441 -0.007412493 0.009013473 -0.009822189 0.007086098 1.34006e-4 -0.009275436 0.008861303 0.001479983 -0.008258461 0.01044297 0.002994656 -0.00508821 0.01228201 0.00619179 -0.003199994 0.01238518 0.007706463 -0.001372039 0.01198625 0.009054124 0.001353204 0.01201075 0.009032249 0.003155589 0.01244223 0.007655501 0.005023956 0.01237267 0.006110668 0.008180797 0.01059031 0.002862751 0.009204447 0.009027004 0.001331686 0.009764671 0.007261753 -2.31266e-5 2.55136e-5 0.01008647 0.01180833 6.0684e-5 0.007755339 0.01332736 1.0259e-4 0.004515588 0.01327437 0.011298 -0.004864454 0.00885868 0.01253843 -0.003479242 0.007491767 0.01337075 -0.001790702 0.005964994 0.01331508 0.001878023 0.002773106 0.01243144 0.003551185 0.00127542 0.01114839 0.004913747 -4.72888e-5 -0.003856778 -0.00248599 0.01326757 -0.006653368 -0.004117429 0.01331579 -0.008667647 -0.005286157 0.01179355 0.001506209 -0.01213699 -6.3762e-5 0.003334224 -0.01253592 0.001259863 0.00522238 -0.01243275 0.002759218 0.008392691 -0.01059371 0.00595653 0.009409666 -0.009012103 0.007486343 0.009956359 -0.007236838 0.008856356 0.004186213 -0.002413809 0.01320308 0.006985485 -0.00399518 0.01320642 0.008991479 -0.005127847 0.01165187 2.12988e-4 -0.009869813 0.01287591 2.04107e-4 -0.007652819 0.01398611 1.86042e-4 -0.004608333 0.01348054 -0.00951159 -0.005658328 -0.002268016 -8.04545e-5 0.01101928 -0.002251923 0.00964576 0.005507588 0.01127958 2.14654e-4 -0.01117008 0.01126343 0.009646654 -0.005486607 -0.002421796 -0.009512484 0.005335748 0.01143324 -0.01353675 -1.97338e-4 0.004581928 -0.002313852 -1.57212e-4 -0.00918287 -0.006629705 -0.01191776 0.004461407 -0.006839871 0.01164507 0.004593372 0.006763935 0.01176702 0.004484236 1.53835e-4 -1.34808e-4 0.01245349 0.01367098 4.65822e-5 0.004363715 0.006974101 -0.01179581 0.004352271 1.32203e-4 -0.01155233 -9.68009e-4 0.00993967 0.005790889 -9.5126e-4 0.01011729 -0.005762994 0.009802877 -0.0098055 -0.005941629 0.009962677 -0.009983062 0.005612254 -7.9143e-4 1.99653e-6 0.01140153 0.009979426 0.001898825 0.001074254 -0.00920242 9.27269e-4 -0.002389073 -0.00918287</float_array>
          <technique_common>
            <accessor source="#Cube_001-mesh-positions-array" count="292" stride="3">
              <param name="X" type="float"/>
              <param name="Y" type="float"/>
              <param name="Z" type="float"/>
            </accessor>
          </technique_common>
        </source>
        <source id="Cube_001-mesh-normals">
          <float_array id="Cube_001-mesh-normals-array" count="876">-0.899867 -0.3588176 -0.2479708 -0.7521793 -0.6095625 -0.2503195 -0.8606208 -0.5066245 -0.05160856 -0.7836448 -0.4574542 -0.4202817 -0.6018065 -0.6709324 -0.4332189 -0.8821538 -0.1946506 -0.428854 -0.770521 -0.3048574 -0.5597852 -0.6451862 -0.5178581 -0.5617454 -0.6911252 -0.7216438 -0.03970474 -0.7759936 -0.610058 0.1601978 -0.5983864 -0.7740844 0.2067053 -0.6623262 -0.6485316 0.3751412 -0.5569177 -0.7928021 -0.2476037 -0.4922159 -0.8704727 -9.461e-4 -0.9082165 -0.3857608 0.1622698 -0.8074188 -0.4793668 0.3439221 -0.8850155 -0.270986 0.3785686 -0.6965853 -0.5150837 0.4994575 -0.7836732 -0.3675127 0.5007902 -0.9664692 -0.2543436 -0.0353102 -0.9654107 -0.09918707 -0.2411314 -0.9653381 -0.1515865 0.2124714 -0.9999364 -0.008789539 0.007080435 -0.7322246 0.07330787 -0.6771064 -0.715 -0.1785669 -0.6759356 -0.818646 -0.04971569 -0.5721427 -0.6210978 -0.06140476 -0.7813239 -0.6030654 -0.3479834 -0.7177882 -0.6745382 -0.3910441 -0.6261651 -0.8230112 0.164651 -0.5436384 -0.9072042 0.04486274 -0.4182918 -0.8933192 0.2546498 -0.3703165 -0.9705197 0.1343773 -0.2000858 -0.7328288 0.2718352 -0.6237529 -0.6377301 0.1869304 -0.7472332 -0.6583251 0.3729115 -0.6538694 -0.5502334 0.3118772 -0.7745811 -0.7933858 0.3517986 -0.4967664 -0.7170466 0.4060263 -0.5665569 -0.5082054 0.05682671 -0.8593592 -0.4830892 -0.2761382 -0.8308866 -0.4396591 0.5906069 -0.6766709 -0.2149146 0.7056596 -0.6751712 -0.2668298 0.5649724 -0.7807741 -0.01199394 0.6970832 -0.71689 -0.01162767 0.5574275 -0.8301443 -0.3788369 0.7279175 -0.5715057 -0.1354123 0.8181508 -0.5588316 -0.01202434 0.7803924 -0.6251745 -0.4882509 0.4512308 -0.7469952 -0.3099184 0.4074259 -0.859043 -0.610121 0.4887743 -0.6235802 -0.5648171 0.6211859 -0.5432401 -0.7099683 0.4992942 -0.4966391 -0.6783278 0.6348069 -0.3699887 -0.5056771 0.7548685 -0.4176894 -0.2874926 0.8568623 -0.4279428 -0.6152167 0.7626881 -0.199538 -0.4123706 0.8787597 -0.2402749 0.1348934 0.9590864 -0.248912 -0.1560755 0.9564129 -0.2468093 -0.009338676 0.9986923 -0.05026417 -0.01150572 0.9078574 -0.4191214 0.2651476 0.8620656 -0.4319025 0.1116979 0.820522 -0.5605955 -0.2801018 0.9593594 -0.03424209 -0.1376432 0.9769004 0.1634627 -0.3678193 0.9050819 0.2133913 -0.2242558 0.8975728 0.3795686 -0.5078446 0.8614131 0.007843494 0.1227169 0.979202 0.1615675 -0.005646049 0.9385328 0.345144 0.2141221 0.9013516 0.3764533 -0.08938938 0.8603232 0.5018501 0.08194398 0.8617703 0.5006368 0.2622483 0.9642425 -0.03824007 0.3926011 0.8861604 -0.2461387 0.3547829 0.9114793 0.2081698 0.4922754 0.8704394 5.49346e-4 0.3031468 0.6730697 0.6745956 0.5164136 0.5342063 0.6692838 0.4506791 0.687082 0.5699182 0.6499949 0.5206246 0.5535852 0.6044999 0.6718565 0.4280056 0.1680694 0.2638083 0.9498199 0.5678704 0.3269215 0.7554108 0.681006 0.3949493 0.6166409 0.2627714 0.7963104 0.5448311 0.4064213 0.8107978 0.421223 0.5577408 0.7928312 0.2456501 0.1256463 0.7709687 0.6243559 0.01715183 0.3989788 0.9167997 -9.46079e-4 0.7225295 0.6913394 0.005371272 0.2498568 0.9682679 -0.002777218 0.8222484 0.5691221 -0.1218009 -0.04306215 0.99162 0.0982415 0.04782366 0.9940128 0.008514821 -0.06582987 0.9977946 -0.1348657 -0.08978837 0.9867874 0.442379 -0.5990658 0.6673988 0.21565 -0.714703 0.6653532 0.379233 -0.7338979 0.5635391 0.1352595 -0.8236426 0.5507431 0.2868818 -0.8596383 0.4227539 0.1601355 -0.2783069 0.9470492 0.01190245 -0.65613 0.7545541 0.01199406 -0.7879164 0.6156655 0.5670124 -0.6256393 0.5357915 0.5059489 -0.7573363 0.4128651 0.6795138 -0.6360847 0.3655915 0.4119513 -0.8794784 0.2383567 0.6153994 -0.7629622 0.1979203 0.6146232 -0.494256 0.6147758 0.351642 -0.2152212 0.9110586 0.6370581 -0.3609203 0.6810973 0.2308471 -0.1314461 0.9640704 0.7130247 -0.5018916 0.4895922 0.722022 -0.408865 0.5581341 0.04043799 0.1255257 0.9912659 0.008819997 -0.1103267 0.9938563 -0.04480165 0.02435404 0.998699 0.006592035 0.160529 0.9870091 0.4183295 0.598974 -0.6828109 0.1914159 0.7096307 -0.678074 0.3565558 0.7350243 -0.5767213 0.2442427 0.5700626 -0.7844579 0.5451021 0.6317459 -0.5511449 0.4853541 0.7641817 -0.4248031 0.6610479 0.6472227 -0.3796295 0.5981822 0.7737914 -0.2083871 0.5917462 0.5002176 -0.6321542 0.4685606 0.4605036 -0.7539147 0.6418274 0.3850659 -0.6631606 0.5329167 0.3220938 -0.7824676 0.6933959 0.5123866 -0.5066184 0.7012755 0.4192149 -0.5766036 0.2890742 0.4132858 -0.8634994 0.7528705 0.6095843 0.2481796 0.9001916 0.359454 0.2458619 0.8606438 0.5066506 0.05096715 0.785628 0.4587052 0.4151846 0.8842261 0.1966032 0.4236643 0.7751871 0.3078165 0.5516647 0.9664537 0.2544697 0.03482246 0.9080333 0.3855471 -0.1637957 0.9649571 0.1515585 -0.2142145 0.8831934 0.2705522 -0.3831068 0.9658059 0.09991937 0.2392388 0.9999327 0.008850574 -0.007507681 0.7757119 0.610022 -0.1616918 0.8060691 0.4785997 -0.3481308 0.7796961 0.3661349 -0.5079561 0.6912176 0.7215836 0.03918594 -0.4210454 -0.6075494 0.6735017 -0.1921484 -0.7187254 0.6682162 -0.1401739 -0.2812024 0.9493558 -0.3569856 -0.7410419 0.5686988 -0.1116089 -0.826034 0.5524594 -0.3336949 -0.2215681 0.9162725 -0.02664291 0.1252188 0.9917713 -0.2122278 -0.1348321 0.9678739 0.06000041 0.02517819 0.9978808 -0.5963415 -0.5058526 0.6232898 -0.5473658 -0.6362994 0.5436119 -0.6201516 -0.3725487 0.6903764 -0.7064592 -0.4221725 0.5680544 -0.4856535 -0.7667058 0.4198845 -0.2645667 -0.8648392 0.4266821 -0.3921728 -0.8868903 0.2441847 -0.2972237 -0.666289 -0.6838984 -0.5089949 -0.5288628 -0.6791381 -0.3620765 -0.5020363 -0.7854045 -0.4457077 -0.6836078 -0.5779491 -0.1525332 -0.6378746 -0.7548838 -0.2045106 -0.4595614 -0.8642794 -6.71419e-4 -0.6216419 -0.7833012 -0.1231735 -0.7640972 -0.6332329 -0.2600247 -0.7920072 -0.5523694 -0.08127224 -0.8576469 -0.5077763 -0.2136312 -0.8995705 -0.3809655 0.001342833 -0.7476091 -0.6641378 0.002655148 -0.816292 -0.5776333 -0.40441 -0.8092167 -0.4261702 -0.354658 -0.9111363 -0.2098772 0.155709 -0.9570214 0.2446725 -0.1345602 -0.9596839 0.2467802 0.009338676 -0.9987244 0.04962337 0.0114752 -0.9102073 0.4139941 -0.2621605 -0.9642868 0.03772181 -0.1228097 -0.9789372 -0.1630951 0.1377313 -0.9766321 -0.1649846 0.005585014 -0.9369739 -0.3493548 0.2236427 -0.8957916 -0.3841112 0.08850479 -0.8562078 -0.5089943 0.2800142 -0.9594034 0.03372377 0.3676619 -0.9047346 -0.2151281 0.5078068 -0.8614313 -0.008270621 0.7591398 -0.5961356 -0.2613987 0.9023347 -0.3429152 -0.2611539 0.8686781 -0.4911817 -0.06433522 0.7853745 -0.4437149 -0.4316294 0.8791493 -0.1793029 -0.4415279 0.6071605 -0.660326 -0.4419569 0.6459922 -0.5067042 -0.5709159 0.7676318 -0.2915853 -0.5707186 0.9702059 -0.2371648 -0.04953265 0.9172581 -0.3693753 0.1489953 0.970848 -0.1344068 0.1984667 0.8950319 -0.2549866 0.3659233 0.9633868 -0.08221763 -0.2551982 0.7891656 -0.5958875 0.1487811 0.8208499 -0.4645053 0.3323258 0.797194 -0.3530775 0.4897122 0.7033491 -0.7090867 -0.04996013 0.567232 -0.7828204 -0.2558129 0.7408776 -0.07129222 0.6678458 0.7231538 0.1825967 0.6661133 0.3203868 0.004882991 0.9472743 0.8239716 0.05246144 0.5641973 0.3650064 -0.1917199 0.911051 -0.08740776 -0.1008058 0.9910591 0.739849 -0.2728425 0.614964 0.8279863 -0.1642239 0.5361616 0.9094626 -0.04382508 0.4134697 -0.3047347 0.6680359 0.6788703 -0.5159551 0.5255076 0.6764853 -0.1587923 0.261612 0.9520211 -0.5621394 0.3171591 0.7638125 -0.08304095 0.04599142 0.9954844 -0.4542746 0.6793825 0.5762589 -0.651044 0.5094331 0.5626897 -0.6790159 0.3833789 0.6260656 -0.01001024 0.3993734 0.9167338 0.1376427 -0.03973627 0.9896846 0.151342 -0.08655095 0.984685 -0.1295223 0.7688636 0.6261571 -0.2684751 0.7918442 0.5485473 -0.4143911 0.8036647 0.4270871 -0.609991 0.6612331 0.4366714 -0.5681232 0.7828289 0.2538014 -0.9027277 0.3435242 0.258986 -0.7598971 0.5961311 0.2591994 -0.8687286 0.4911758 0.06369352 -0.7875354 0.4449324 0.4264075 -0.8813827 0.1812816 0.4362356 -0.7725648 0.294511 0.5625007 -0.703444 0.7090291 0.04944157 -0.7889294 0.5958324 -0.1502475 -0.9170989 0.3691895 -0.1504286 -0.819586 0.4637963 -0.3364102 -0.9702026 0.2372861 0.04901367 -0.9638522 0.08298122 0.2531859 -0.730017 -0.08417165 0.678226 -0.7167665 0.1702648 0.6762069 -0.8167548 0.03827106 0.5757142 -0.3068093 -1.22077e-4 0.9517711 -0.8173137 -0.1788446 0.5477344 -0.9026004 -0.05969518 0.4263204 -0.7260442 -0.2861756 0.6252709 -0.3481045 -0.1985288 0.916193 0.1041301 -0.0989114 0.989633 0.2984745 -0.6613134 -0.6881699 0.5081766 -0.5202317 -0.6863787 0.4490643 -0.6759464 -0.5843268 0.3589352 -0.4960575 -0.790628 0.5986107 -0.3377906 -0.7263351 0.6722232 -0.3795409 -0.6356608 0.2654885 -0.7875538 -0.556125 0.4122583 -0.8021153 -0.432035 0.1267791 -0.7620175 -0.6350247 0.1519863 -0.6353819 -0.7570931 0.2333522 -0.5092792 -0.8283607 0.4754915 -0.268082 -0.8378782 0.7210369 0.08609348 -0.6875273 0.7082624 -0.1663304 -0.6860748 0.6106934 -0.05075377 -0.790239 0.8111393 -0.03555482 -0.5837713 0.6233623 0.1983162 -0.7563666 0.4942537 0.06573772 -0.8668286 0.7187907 0.2849893 -0.6341302 0.8121286 0.1792115 -0.555275 0.9001618 0.06076353 -0.4312964 -0.4509787 0.2721071 -0.8500447 -0.4251713 -0.2570987 -0.8678304 0.4779678 -0.1977366 -0.8558313 0.4569938 0.2786093 -0.8447091 0.3073315 0.2310632 -0.9231237 0.1013856 -0.3650738 -0.9254416 -0.394735 0.02050888 -0.9185661 -0.02127182 0.4585508 -0.8884136 -0.0780375 -0.5662833 -0.820508 0.007233023 -0.004944086 0.9999616</float_array>
          <technique_common>
            <accessor source="#Cube_001-mesh-normals-array" count="292" stride="3">
              <param name="X" type="float"/>
              <param name="Y" type="float"/>
              <param name="Z" type="float"/>
            </accessor>
          </technique_common>
        </source>
        <source id="Cube_001-mesh-map-0">
          <float_array id="Cube_001-mesh-map-0-array" count="3480">0.771708 0.2816113 0.8202821 0.2495757 0.8137165 0.2912597 0.7792237 0.2405542 0.8246472 0.206529 0.8202821 0.2495757 0.7335246 0.2666263 0.7792237 0.2405542 0.771708 0.2816113 0.7438126 0.2257983 0.7831955 0.1998243 0.7792237 0.2405542 0.8137165 0.2912597 0.8653811 0.2589851 0.8572226 0.2987877 0.8572226 0.2987877 0.9103793 0.2689745 0.8995524 0.3068173 0.8202821 0.2495757 0.8716512 0.2165289 0.8653811 0.2589851 0.8653811 0.2589851 0.9187475 0.2277181 0.9103793 0.2689745 0.8572226 0.2987877 0.8091999 0.3304597 0.8137165 0.2912597 0.8500315 0.333727 0.8106005 0.3654829 0.8091999 0.3304597 0.8995524 0.3068173 0.8500315 0.333727 0.8572226 0.2987877 0.8881255 0.3385584 0.849983 0.3637142 0.8500315 0.333727 0.8137165 0.2912597 0.7675611 0.3234994 0.771708 0.2816113 0.771708 0.2816113 0.7281946 0.3111416 0.7335246 0.2666263 0.8091999 0.3304597 0.7688523 0.3623146 0.7675611 0.3234994 0.7675611 0.3234994 0.7283536 0.353287 0.7281946 0.3111416 0.4818577 0.6800264 0.5050527 0.7221386 0.4602733 0.7078335 0.7014937 0.2430886 0.7438126 0.2257983 0.7335246 0.2666263 0.6925431 0.1660978 0.739712 0.1683403 0.7156554 0.1991858 0.7156554 0.1991858 0.7550323 0.197466 0.7438126 0.2257983 0.4602733 0.7078335 0.4308176 0.6609177 0.4818577 0.6800264 0.413672 0.6868062 0.3868058 0.6358552 0.4308176 0.6609177 0.7335246 0.2666263 0.6941795 0.2916821 0.7014937 0.2430886 0.7281946 0.3111416 0.6927199 0.3374781 0.6941795 0.2916821 0.4818577 0.6800264 0.4499553 0.6323783 0.5036079 0.6463752 0.5036079 0.6463752 0.4612268 0.6003818 0.5159626 0.6077165 0.4308176 0.6609177 0.4070945 0.6122797 0.4499553 0.6323783 0.4499553 0.6323783 0.4257256 0.5935794 0.4612268 0.6003818 0.5036079 0.6463752 0.5335278 0.6952891 0.4818577 0.6800264 0.5650645 0.6579288 0.5755017 0.710568 0.5335278 0.6952891 0.5159626 0.6077165 0.5650645 0.6579288 0.5036079 0.6463752 0.4931119 0.5206062 0.5227383 0.4716126 0.5463361 0.5138537 0.5463361 0.5138537 0.5597628 0.4579064 0.5905876 0.4968687 0.4765267 0.4775956 0.5068161 0.4337216 0.5227383 0.4716126 0.5227383 0.4716126 0.5372571 0.4325039 0.5597628 0.4579064 0.5463361 0.5138537 0.5093606 0.5648866 0.4931119 0.5206062 0.571774 0.5628856 0.5159626 0.6077165 0.5093606 0.5648866 0.5905876 0.4968687 0.571774 0.5628856 0.5463361 0.5138537 0.4931119 0.5206062 0.4547738 0.5641216 0.4404255 0.5248175 0.4404255 0.5248175 0.4102472 0.5676223 0.3941577 0.5317101 0.5093606 0.5648866 0.4612268 0.6003818 0.4547738 0.5641216 0.4547738 0.5641216 0.4257256 0.5935794 0.4102472 0.5676223 0.4404255 0.5248175 0.4765267 0.4775956 0.4931119 0.5206062 0.4280108 0.4836897 0.4647774 0.4369259 0.4765267 0.4775956 0.3941577 0.5317101 0.4280108 0.4836897 0.4404255 0.5248175 0.383949 0.4929028 0.4207485 0.4436496 0.4280108 0.4836897 0.5091626 0.3654829 0.463036 0.3996683 0.4674891 0.3680107 0.5044047 0.39774 0.4647774 0.4369259 0.463036 0.3996683 0.5513086 0.3727958 0.5044047 0.39774 0.5091626 0.3654829 0.5442147 0.4060047 0.5068161 0.4337216 0.5044047 0.39774 0.4674891 0.3680107 0.4218571 0.4076088 0.4287201 0.3779386 0.04534327 0.04408568 0.09474247 0.04712826 0.06240463 0.07357287 0.463036 0.3996683 0.4207485 0.4436496 0.4218571 0.4076088 0.07899296 0.0184096 0.1316159 0.02631777 0.09474247 0.04712826 0.9846642 0.6468979 0.9594951 0.6204946 0.9957658 0.6102619 0.9500692 0.6526524 0.9152985 0.629936 0.9594951 0.6204946 0.06240463 0.07357287 0.01912117 0.07609874 0.04534327 0.04408568 0.03712987 0.1033306 0.003086686 0.1159082 0.01912117 0.07609874 0.9957658 0.6102619 0.96191 0.5827191 0.998057 0.5703182 0.998057 0.5703182 0.9589285 0.5412362 0.994604 0.5278468 0.9594951 0.6204946 0.9174286 0.5945413 0.96191 0.5827191 0.96191 0.5827191 0.9154996 0.5547655 0.9589285 0.5412362 0.8095647 0.6478868 0.7694199 0.6116667 0.8152626 0.6123203 0.8152626 0.6123203 0.7779822 0.5750786 0.8195397 0.5729685 0.757326 0.6459997 0.7334271 0.5976008 0.7694199 0.6116667 0.7694199 0.6116667 0.7501119 0.5730041 0.7779822 0.5750786 0.8152626 0.6123203 0.8637719 0.6407995 0.8095647 0.6478868 0.8665726 0.6055101 0.9152985 0.629936 0.8637719 0.6407995 0.8195397 0.5729685 0.8665726 0.6055101 0.8152626 0.6123203 0.8672078 0.5657702 0.9174286 0.5945413 0.8665726 0.6055101 0.8095647 0.6478868 0.8609955 0.6695394 0.8070904 0.6785554 0.007659256 0.2210273 0.02634811 0.1650865 0.03941529 0.2198262 0.8637719 0.6407995 0.9089831 0.6585909 0.8609955 0.6695394 0 0.1649736 0.02167809 0.1278311 0.02634811 0.1650865 0.8070904 0.6785554 0.757326 0.6459997 0.8095647 0.6478868 0.748252 0.6786965 0.7142623 0.6284736 0.757326 0.6459997 0.03941529 0.2198262 0.02386265 0.2818018 0.007659256 0.2210273 0.06269723 0.2838252 0.0388745 0.3318685 0.02386265 0.2818018 0.5431319 0.1712037 0.5328145 0.1154499 0.5749233 0.1370167 0.5749233 0.1370167 0.5631812 0.08643972 0.6024433 0.1041169 0.4947755 0.1466696 0.5037141 0.09072977 0.5328145 0.1154499 0.5328145 0.1154499 0.5352303 0.0752505 0.5631812 0.08643972 0.5749233 0.1370167 0.5933561 0.1940973 0.5431319 0.1712037 0.620678 0.1604438 0.6377609 0.218094 0.5933561 0.1940973 0.6024433 0.1041169 0.620678 0.1604438 0.5749233 0.1370167 0.6438149 0.1267678 0.6624331 0.1861369 0.620678 0.1604438 0.5431319 0.1712037 0.5659239 0.2260729 0.5124288 0.2074392 0.5124288 0.2074392 0.5482506 0.2585741 0.4926579 0.2462844 0.5933561 0.1940973 0.6094716 0.245984 0.5659239 0.2260729 0.5659239 0.2260729 0.5859336 0.2651971 0.5482506 0.2585741 0.5124288 0.2074392 0.4947755 0.1466696 0.5431319 0.1712037 0.4539517 0.1844829 0.4602468 0.1165997 0.4947755 0.1466696 0.4926579 0.2462844 0.4539517 0.1844829 0.5124288 0.2074392 0.4273716 0.2286159 0.4108303 0.1516056 0.4539517 0.1844829 0.6294745 0.4195449 0.5807176 0.4286429 0.5914954 0.3923898 0.5914954 0.3923898 0.5442147 0.4060047 0.5513086 0.3727958 0.6163561 0.4619603 0.5597628 0.4579064 0.5807176 0.4286429 0.5807176 0.4286429 0.5372571 0.4325039 0.5442147 0.4060047 0.9884732 0.4836278 0.9417531 0.456116 0.9776563 0.4400162 0.9521651 0.4979563 0.9014709 0.4722988 0.9417531 0.456116 0.994604 0.5278468 0.9521651 0.4979563 0.9884732 0.4836278 0.9589285 0.5412362 0.9096378 0.512968 0.9521651 0.4979563 0.9776563 0.4400162 0.9278259 0.4189516 0.9601448 0.3993664 0.2794403 0.3969394 0.3092449 0.44823 0.2618251 0.4207423 0.9417531 0.456116 0.8926269 0.435908 0.9278259 0.4189516 0.9278259 0.4189516 0.8852491 0.410489 0.9061972 0.3902013 0.6649971 0.449541 0.6163561 0.4619603 0.6294745 0.4195449 0.6535731 0.5022624 0.5905876 0.4968687 0.6163561 0.4619603 0.6972296 0.4733756 0.6535731 0.5022624 0.6649971 0.449541 0.8177513 0.5309437 0.771805 0.4931598 0.8140723 0.487622 0.7764614 0.5356164 0.7333467 0.5020876 0.771805 0.4931598 0.8195397 0.5729685 0.7764614 0.5356164 0.8177513 0.5309437 0.7779822 0.5750786 0.7407297 0.5444441 0.7764614 0.5356164 0.8140723 0.487622 0.7709602 0.4475885 0.8126776 0.4443795 0.8126776 0.4443795 0.775767 0.4028794 0.8173311 0.4031065 0.771805 0.4931598 0.7315118 0.4541807 0.7709602 0.4475885 0.7709602 0.4475885 0.7354055 0.4066652 0.775767 0.4028794 0.8126776 0.4443795 0.8581024 0.4817346 0.8140723 0.487622 0.8537386 0.442435 0.9014709 0.4722988 0.8581024 0.4817346 0.8173311 0.4031065 0.8537386 0.442435 0.8126776 0.4443795 0.8565478 0.4062383 0.8926269 0.435908 0.8537386 0.442435 0.8140723 0.487622 0.8634883 0.523679 0.8177513 0.5309437 0.8177513 0.5309437 0.8672078 0.5657702 0.8195397 0.5729685 0.8581024 0.4817346 0.9096378 0.512968 0.8634883 0.523679 0.8634883 0.523679 0.9154996 0.5547655 0.8672078 0.5657702 0.4588639 0.03571552 0.496985 0.05784243 0.4515053 0.07709854 0.4515053 0.07709854 0.5037141 0.09072977 0.4602468 0.1165997 0.5038762 0.022785 0.54007 0.049281 0.496985 0.05784243 0.496985 0.05784243 0.5352303 0.0752505 0.5037141 0.09072977 0.4515053 0.07709854 0.4162502 0.05280065 0.4588639 0.03571552 0.2102905 0.3703606 0.2521027 0.320859 0.2678236 0.3446133 0.4602468 0.1165997 0.4034023 0.1032083 0.4515053 0.07709854 0.4108303 0.1516056 0.3613138 0.1224063 0.4034023 0.1032083 0.4588639 0.03571552 0.4339563 0.01389175 0.4726357 0 0.9380319 0.3179702 0.8881255 0.3385584 0.8995524 0.3068173 0.2678236 0.3446133 0.3017281 0.2959003 0.3155244 0.3148573 0.3155244 0.3148573 0.3323569 0.2754127 0.3510261 0.2811899 0.9380319 0.3179702 0.9855067 0.2875123 0.9718757 0.3265166 0.9511353 0.2797361 0.9942845 0.2457579 0.9855067 0.2875123 0.8995524 0.3068173 0.9511353 0.2797361 0.9380319 0.3179702 0.9103793 0.2689745 0.9604764 0.2379907 0.9511353 0.2797361 0.8185819 0.1215457 0.776711 0.1589183 0.7662784 0.1174677 0.7662784 0.1174677 0.739712 0.1683403 0.7219858 0.129468 0.8225626 0.163241 0.7831955 0.1998243 0.776711 0.1589183 0.776711 0.1589183 0.7550323 0.197466 0.739712 0.1683403 0.7662784 0.1174677 0.8172587 0.08327734 0.8185819 0.1215457 0.0316146 0.4422346 0.0420295 0.5057728 0.01058065 0.5009509 0.7219858 0.129468 0.758406 0.07510447 0.7662784 0.1174677 0.8185819 0.1215457 0.8703894 0.09795916 0.8720572 0.1331511 0.8720572 0.1331511 0.9171944 0.1115182 0.9223433 0.1460097 0.8172587 0.08327734 0.8770537 0.07080793 0.8703894 0.09795916 0.8703894 0.09795916 0.9108119 0.08808708 0.9171944 0.1115182 0.8720572 0.1331511 0.8225626 0.163241 0.8185819 0.1215457 0.8731772 0.1736293 0.8246472 0.206529 0.8225626 0.163241 0.9223433 0.1460097 0.8731772 0.1736293 0.8720572 0.1331511 0.9227982 0.1857364 0.8716512 0.2165289 0.8731772 0.1736293 0.6203323 0.07174313 0.5918275 0.02591234 0.631431 0.04325217 0.5809887 0.05525469 0.5489697 0.01814049 0.5918275 0.02591234 0.6024433 0.1041169 0.5809887 0.05525469 0.6203323 0.07174313 0.5631812 0.08643972 0.54007 0.049281 0.5809887 0.05525469 0.9996513 0.1596599 0.9656695 0.1952157 0.9650791 0.1538475 0.9650791 0.1538475 0.9227982 0.1857364 0.9223433 0.1460097 1 0.2026916 0.9604764 0.2379907 0.9656695 0.1952157 0.9656695 0.1952157 0.9187475 0.2277181 0.9227982 0.1857364 0.9650791 0.1538475 0.9902366 0.1180093 0.9996513 0.1596599 0.01053905 0.6443995 0.05328959 0.6514094 0.0341767 0.6781952 0.9223433 0.1460097 0.9570701 0.1163226 0.9650791 0.1538475 0.9171944 0.1115182 0.9371759 0.08305335 0.9570701 0.1163226 0.631431 0.04325217 0.6586918 0.09472447 0.6203323 0.07174313 0.6203323 0.07174313 0.6438149 0.1267678 0.6024433 0.1041169 0.0341767 0.6781952 0.08345174 0.6801254 0.06578528 0.7062795 0.6586918 0.09472447 0.681331 0.1531497 0.6438149 0.1267678 0.1955035 0.6540366 0.2514344 0.6323991 0.2328875 0.6692029 0.2140671 0.6175088 0.263977 0.5913407 0.2514344 0.6323991 0.1590533 0.6319316 0.2140671 0.6175088 0.1955035 0.6540366 0.1797832 0.5957831 0.2251309 0.5782398 0.2140671 0.6175088 0.2328875 0.6692029 0.2880373 0.645434 0.2676947 0.6797676 0.6557111 0.3017299 0.624274 0.3505621 0.6137773 0.3214377 0.2514344 0.6323991 0.3032596 0.6058411 0.2880373 0.645434 0.7069444 0.3730481 0.7354055 0.4066652 0.6997969 0.4155718 0.6557111 0.3017299 0.6686591 0.2459374 0.6881565 0.2740526 0.6381064 0.2727724 0.6377609 0.218094 0.6686591 0.2459374 0.6137773 0.3214377 0.6381064 0.2727724 0.6557111 0.3017299 0.5991874 0.2902978 0.6094716 0.245984 0.6381064 0.2727724 0.2328875 0.6692029 0.175402 0.6890084 0.1955035 0.6540366 0.1955035 0.6540366 0.1380757 0.6697444 0.1590533 0.6319316 0.6686591 0.2459374 0.6624331 0.1861369 0.6925431 0.2145013 0.175402 0.6890084 0.118647 0.7034902 0.1380757 0.6697444 0.506419 0.3293973 0.4751208 0.3640482 0.4529928 0.326709 0.4529928 0.326709 0.4399623 0.3654324 0.4110341 0.3286545 0.7007432 0.5181453 0.7407297 0.5444441 0.7116672 0.5641739 0.7116672 0.5641739 0.7501119 0.5730041 0.7334271 0.5976008 0.4529928 0.326709 0.4936628 0.2883008 0.506419 0.3293973 0.4320642 0.2787948 0.4926579 0.2462844 0.4936628 0.2883008 0.4110341 0.3286545 0.4320642 0.2787948 0.4529928 0.326709 0.3815572 0.2777417 0.4273716 0.2286159 0.4320642 0.2787948 0.506419 0.3293973 0.5502051 0.2938045 0.5620136 0.3291502 0.5620136 0.3291502 0.5991874 0.2902978 0.6137773 0.3214377 0.4936628 0.2883008 0.5482506 0.2585741 0.5502051 0.2938045 0.5502051 0.2938045 0.5859336 0.2651971 0.5991874 0.2902978 0.5620136 0.3291502 0.5219019 0.3654829 0.506419 0.3293973 0.6972581 0.4662744 0.7333467 0.5020876 0.7007432 0.5181453 0.6137773 0.3214377 0.5739024 0.3619974 0.5620136 0.3291502 0.6997969 0.4155718 0.7315118 0.4541807 0.6972581 0.4662744 0.1002023 0.1655316 0.154426 0.1727352 0.1263497 0.212359 0.1263497 0.212359 0.1832073 0.2003015 0.1613962 0.2450188 0.1321322 0.1319453 0.1844792 0.1407968 0.154426 0.1727352 0.154426 0.1727352 0.1985403 0.1679995 0.1832073 0.2003015 0.1263497 0.212359 0.06977993 0.1980764 0.1002023 0.1655316 0.09631645 0.2550333 0.03941529 0.2198262 0.06977993 0.1980764 0.1613962 0.2450188 0.09631645 0.2550333 0.1263497 0.212359 0.1357768 0.2960673 0.06269723 0.2838252 0.09631645 0.2550333 0.1002023 0.1655316 0.05203372 0.1457493 0.0797891 0.1166622 0.0797891 0.1166622 0.03712987 0.1033306 0.06240463 0.07357287 0.06977993 0.1980764 0.02634811 0.1650865 0.05203372 0.1457493 0.05203372 0.1457493 0.02167809 0.1278311 0.03712987 0.1033306 0.0797891 0.1166622 0.1321322 0.1319453 0.1002023 0.1655316 0.1123466 0.08752489 0.1666232 0.1026082 0.1321322 0.1319453 0.06240463 0.07357287 0.1123466 0.08752489 0.0797891 0.1166622 0.09474247 0.04712826 0.1485497 0.0624845 0.1123466 0.08752489 0.2588509 0.1085207 0.2047289 0.08281117 0.243121 0.06991767 0.2204434 0.1211787 0.1666232 0.1026082 0.2047289 0.08281117 0.2681535 0.1508381 0.2204434 0.1211787 0.2588509 0.1085207 0.2283604 0.1616417 0.1844792 0.1407968 0.2204434 0.1211787 0.243121 0.06991767 0.1872419 0.04568797 0.2249636 0.03587353 0.3601897 0.5465064 0.383949 0.4929028 0.3941577 0.5317101 0.2047289 0.08281117 0.1485497 0.0624845 0.1872419 0.04568797 0.1872419 0.04568797 0.1316159 0.02631777 0.1704972 0.01346164 0.2249636 0.03587353 0.2784714 0.06129109 0.243121 0.06991767 0.3780137 0.5824205 0.3868058 0.6358552 0.3562206 0.6027315 0.3941577 0.5317101 0.3780137 0.5824205 0.3601897 0.5465064 0.4102472 0.5676223 0.4070945 0.6122797 0.3780137 0.5824205 0.243121 0.06991767 0.2962344 0.09746271 0.2588509 0.1085207 0.2588509 0.1085207 0.3083915 0.1384142 0.2681535 0.1508381 0.2784714 0.06129109 0.3281891 0.08837014 0.2962344 0.09746271 0.2962344 0.09746271 0.3437561 0.1270907 0.3083915 0.1384142 0.2602016 0.2415361 0.2224552 0.2050511 0.2670292 0.1960254 0.2670292 0.1960254 0.2283604 0.1616417 0.2681535 0.1508381 0.2085068 0.2513861 0.1832073 0.2003015 0.2224552 0.2050511 0.2224552 0.2050511 0.1985403 0.1679995 0.2283604 0.1616417 0.2670292 0.1960254 0.3090005 0.2255445 0.2602016 0.2415361 0.3117889 0.1822659 0.3505833 0.2104665 0.3090005 0.2255445 0.2681535 0.1508381 0.3117889 0.1822659 0.2670292 0.1960254 0.3083915 0.1384142 0.3510997 0.1689057 0.3117889 0.1822659 0.2602016 0.2415361 0.3026002 0.264776 0.252394 0.2848236 0.252394 0.2848236 0.3017281 0.2959003 0.2521027 0.320859 0.3090005 0.2255445 0.3425704 0.2484239 0.3026002 0.264776 0.3026002 0.264776 0.3323569 0.2754127 0.3017281 0.2959003 0.252394 0.2848236 0.2085068 0.2513861 0.2602016 0.2415361 0.1922944 0.3006257 0.1613962 0.2450188 0.2085068 0.2513861 0.2521027 0.320859 0.1922944 0.3006257 0.252394 0.2848236 0.1881211 0.3434054 0.1357768 0.2960673 0.1922944 0.3006257 0.09799665 0.5649649 0.1524301 0.5622419 0.1270473 0.6005513 0.1270473 0.6005513 0.1797832 0.5957831 0.1590533 0.6319316 0.1277285 0.5210562 0.183272 0.5371637 0.1524301 0.5622419 0.1524301 0.5622419 0.195946 0.5699946 0.1797832 0.5957831 0.1270473 0.6005513 0.07387322 0.6110409 0.09799665 0.5649649 0.1039634 0.6423643 0.05328959 0.6514094 0.07387322 0.6110409 0.1590533 0.6319316 0.1039634 0.6423643 0.1270473 0.6005513 0.1380757 0.6697444 0.08345174 0.6801254 0.1039634 0.6423643 0.09799665 0.5649649 0.04861301 0.5799474 0.07041275 0.5302414 0.07041275 0.5302414 0.02466118 0.5583245 0.0420295 0.5057728 0.07387322 0.6110409 0.03049123 0.6198789 0.04861301 0.5799474 0.04861301 0.5799474 0.01708549 0.5942625 0.02466118 0.5583245 0.07041275 0.5302414 0.1277285 0.5210562 0.09799665 0.5649649 0.1013988 0.4763972 0.1652224 0.4914324 0.1277285 0.5210562 0.0420295 0.5057728 0.1013988 0.4763972 0.07041275 0.5302414 0.2633433 0.5009985 0.222733 0.5350444 0.2126315 0.4882105 0.2126315 0.4882105 0.183272 0.5371637 0.1652224 0.4914324 0.2664529 0.5466206 0.2251309 0.5782398 0.222733 0.5350444 0.222733 0.5350444 0.195946 0.5699946 0.183272 0.5371637 0.2126315 0.4882105 0.2591301 0.4572339 0.2633433 0.5009985 0.2005845 0.438026 0.2618251 0.4207423 0.2591301 0.4572339 0.1652224 0.4914324 0.2005845 0.438026 0.2126315 0.4882105 0.2633433 0.5009985 0.3075538 0.4797731 0.3107453 0.5194042 0.8317966 0.3656933 0.8565478 0.4062383 0.8173311 0.4031065 0.2591301 0.4572339 0.3092449 0.44823 0.3075538 0.4797731 0.8726806 0.3736029 0.8852491 0.410489 0.8565478 0.4062383 0.3107453 0.5194042 0.2664529 0.5466206 0.2633433 0.5009985 0.3100714 0.562629 0.263977 0.5913407 0.2664529 0.5466206 0.3510996 0.536198 0.3100714 0.562629 0.3107453 0.5194042 0.3483768 0.5776361 0.3032596 0.6058411 0.3100714 0.562629 0.5832757 0.61286 0.6164137 0.6731519 0.5650645 0.6579288 0.1439847 0.4388477 0.1999967 0.3945152 0.2005845 0.438026 0.6888804 0.5813606 0.6971653 0.636789 0.6403846 0.6387957 0.6901708 0.5336377 0.6253872 0.5460377 0.6535731 0.5022624 0.6253872 0.5460377 0.5832757 0.61286 0.571774 0.5628856 0.05065286 0.3931574 0.07038086 0.4446587 0.0316146 0.4422346 0.09933078 0.4014477 0.1013988 0.4763972 0.07038086 0.4446587 0.6972296 0.693066 0.7408267 0.7554832 0.6973658 0.7601376 0.1439847 0.4388477 0.09933078 0.4014477 0.151544 0.3703606 0.6403846 0.6387957 0.6253872 0.5460377 0.6888804 0.5813606 0.771708 0.2816113 0.7792237 0.2405542 0.8202821 0.2495757 0.7792237 0.2405542 0.7831955 0.1998243 0.8246472 0.206529 0.7335246 0.2666263 0.7438126 0.2257983 0.7792237 0.2405542 0.7438126 0.2257983 0.7550323 0.197466 0.7831955 0.1998243 0.8137165 0.2912597 0.8202821 0.2495757 0.8653811 0.2589851 0.8572226 0.2987877 0.8653811 0.2589851 0.9103793 0.2689745 0.8202821 0.2495757 0.8246472 0.206529 0.8716512 0.2165289 0.8653811 0.2589851 0.8716512 0.2165289 0.9187475 0.2277181 0.8572226 0.2987877 0.8500315 0.333727 0.8091999 0.3304597 0.8500315 0.333727 0.849983 0.3637142 0.8106005 0.3654829 0.8995524 0.3068173 0.8881255 0.3385584 0.8500315 0.333727 0.8881255 0.3385584 0.8787966 0.3593637 0.849983 0.3637142 0.8137165 0.2912597 0.8091999 0.3304597 0.7675611 0.3234994 0.771708 0.2816113 0.7675611 0.3234994 0.7281946 0.3111416 0.8091999 0.3304597 0.8106005 0.3654829 0.7688523 0.3623146 0.7675611 0.3234994 0.7688523 0.3623146 0.7283536 0.353287 0.4818577 0.6800264 0.5335278 0.6952891 0.5050527 0.7221386 0.7014937 0.2430886 0.7156554 0.1991858 0.7438126 0.2257983 0.6925431 0.1660978 0.7219858 0.129468 0.739712 0.1683403 0.7156554 0.1991858 0.739712 0.1683403 0.7550323 0.197466 0.4602733 0.7078335 0.413672 0.6868062 0.4308176 0.6609177 0.413672 0.6868062 0.3722515 0.6586031 0.3868058 0.6358552 0.7335246 0.2666263 0.7281946 0.3111416 0.6941795 0.2916821 0.7281946 0.3111416 0.7283536 0.353287 0.6927199 0.3374781 0.4818577 0.6800264 0.4308176 0.6609177 0.4499553 0.6323783 0.5036079 0.6463752 0.4499553 0.6323783 0.4612268 0.6003818 0.4308176 0.6609177 0.3868058 0.6358552 0.4070945 0.6122797 0.4499553 0.6323783 0.4070945 0.6122797 0.4257256 0.5935794 0.5036079 0.6463752 0.5650645 0.6579288 0.5335278 0.6952891 0.5650645 0.6579288 0.6164137 0.6731519 0.5755017 0.710568 0.5159626 0.6077165 0.5832757 0.61286 0.5650645 0.6579288 0.4931119 0.5206062 0.4765267 0.4775956 0.5227383 0.4716126 0.5463361 0.5138537 0.5227383 0.4716126 0.5597628 0.4579064 0.4765267 0.4775956 0.4647774 0.4369259 0.5068161 0.4337216 0.5227383 0.4716126 0.5068161 0.4337216 0.5372571 0.4325039 0.5463361 0.5138537 0.571774 0.5628856 0.5093606 0.5648866 0.571774 0.5628856 0.5832757 0.61286 0.5159626 0.6077165 0.5905876 0.4968687 0.6253872 0.5460377 0.571774 0.5628856 0.4931119 0.5206062 0.5093606 0.5648866 0.4547738 0.5641216 0.4404255 0.5248175 0.4547738 0.5641216 0.4102472 0.5676223 0.5093606 0.5648866 0.5159626 0.6077165 0.4612268 0.6003818 0.4547738 0.5641216 0.4612268 0.6003818 0.4257256 0.5935794 0.4404255 0.5248175 0.4280108 0.4836897 0.4765267 0.4775956 0.4280108 0.4836897 0.4207485 0.4436496 0.4647774 0.4369259 0.3941577 0.5317101 0.383949 0.4929028 0.4280108 0.4836897 0.383949 0.4929028 0.3806358 0.454778 0.4207485 0.4436496 0.5091626 0.3654829 0.5044047 0.39774 0.463036 0.3996683 0.5044047 0.39774 0.5068161 0.4337216 0.4647774 0.4369259 0.5513086 0.3727958 0.5442147 0.4060047 0.5044047 0.39774 0.5442147 0.4060047 0.5372571 0.4325039 0.5068161 0.4337216 0.4674891 0.3680107 0.463036 0.3996683 0.4218571 0.4076088 0.04534327 0.04408568 0.07899296 0.0184096 0.09474247 0.04712826 0.463036 0.3996683 0.4647774 0.4369259 0.4207485 0.4436496 0.07899296 0.0184096 0.1171787 0 0.1316159 0.02631777 0.9846642 0.6468979 0.9500692 0.6526524 0.9594951 0.6204946 0.9500692 0.6526524 0.9089831 0.6585909 0.9152985 0.629936 0.06240463 0.07357287 0.03712987 0.1033306 0.01912117 0.07609874 0.03712987 0.1033306 0.02167809 0.1278311 0.003086686 0.1159082 0.9957658 0.6102619 0.9594951 0.6204946 0.96191 0.5827191 0.998057 0.5703182 0.96191 0.5827191 0.9589285 0.5412362 0.9594951 0.6204946 0.9152985 0.629936 0.9174286 0.5945413 0.96191 0.5827191 0.9174286 0.5945413 0.9154996 0.5547655 0.8095647 0.6478868 0.757326 0.6459997 0.7694199 0.6116667 0.8152626 0.6123203 0.7694199 0.6116667 0.7779822 0.5750786 0.757326 0.6459997 0.7142623 0.6284736 0.7334271 0.5976008 0.7694199 0.6116667 0.7334271 0.5976008 0.7501119 0.5730041 0.8152626 0.6123203 0.8665726 0.6055101 0.8637719 0.6407995 0.8665726 0.6055101 0.9174286 0.5945413 0.9152985 0.629936 0.8195397 0.5729685 0.8672078 0.5657702 0.8665726 0.6055101 0.8672078 0.5657702 0.9154996 0.5547655 0.9174286 0.5945413 0.8095647 0.6478868 0.8637719 0.6407995 0.8609955 0.6695394 0.007659256 0.2210273 0 0.1649736 0.02634811 0.1650865 0.8637719 0.6407995 0.9152985 0.629936 0.9089831 0.6585909 0 0.1649736 0.003086686 0.1159082 0.02167809 0.1278311 0.8070904 0.6785554 0.748252 0.6786965 0.757326 0.6459997 0.748252 0.6786965 0.6972296 0.659797 0.7142623 0.6284736 0.03941529 0.2198262 0.06269723 0.2838252 0.02386265 0.2818018 0.06269723 0.2838252 0.1035433 0.3581355 0.0388745 0.3318685 0.5431319 0.1712037 0.4947755 0.1466696 0.5328145 0.1154499 0.5749233 0.1370167 0.5328145 0.1154499 0.5631812 0.08643972 0.4947755 0.1466696 0.4602468 0.1165997 0.5037141 0.09072977 0.5328145 0.1154499 0.5037141 0.09072977 0.5352303 0.0752505 0.5749233 0.1370167 0.620678 0.1604438 0.5933561 0.1940973 0.620678 0.1604438 0.6624331 0.1861369 0.6377609 0.218094 0.6024433 0.1041169 0.6438149 0.1267678 0.620678 0.1604438 0.6438149 0.1267678 0.681331 0.1531497 0.6624331 0.1861369 0.5431319 0.1712037 0.5933561 0.1940973 0.5659239 0.2260729 0.5124288 0.2074392 0.5659239 0.2260729 0.5482506 0.2585741 0.5933561 0.1940973 0.6377609 0.218094 0.6094716 0.245984 0.5659239 0.2260729 0.6094716 0.245984 0.5859336 0.2651971 0.5124288 0.2074392 0.4539517 0.1844829 0.4947755 0.1466696 0.4539517 0.1844829 0.4108303 0.1516056 0.4602468 0.1165997 0.4926579 0.2462844 0.4273716 0.2286159 0.4539517 0.1844829 0.4273716 0.2286159 0.3510996 0.2024123 0.4108303 0.1516056 0.6294745 0.4195449 0.6163561 0.4619603 0.5807176 0.4286429 0.5914954 0.3923898 0.5807176 0.4286429 0.5442147 0.4060047 0.6163561 0.4619603 0.5905876 0.4968687 0.5597628 0.4579064 0.5807176 0.4286429 0.5597628 0.4579064 0.5372571 0.4325039 0.9884732 0.4836278 0.9521651 0.4979563 0.9417531 0.456116 0.9521651 0.4979563 0.9096378 0.512968 0.9014709 0.4722988 0.994604 0.5278468 0.9589285 0.5412362 0.9521651 0.4979563 0.9589285 0.5412362 0.9154996 0.5547655 0.9096378 0.512968 0.9776563 0.4400162 0.9417531 0.456116 0.9278259 0.4189516 0.2794403 0.3969394 0.3245661 0.429269 0.3092449 0.44823 0.9417531 0.456116 0.9014709 0.4722988 0.8926269 0.435908 0.9278259 0.4189516 0.8926269 0.435908 0.8852491 0.410489 0.6649971 0.449541 0.6535731 0.5022624 0.6163561 0.4619603 0.6535731 0.5022624 0.6253872 0.5460377 0.5905876 0.4968687 0.6972296 0.4733756 0.6901708 0.5336377 0.6535731 0.5022624 0.8177513 0.5309437 0.7764614 0.5356164 0.771805 0.4931598 0.7764614 0.5356164 0.7407297 0.5444441 0.7333467 0.5020876 0.8195397 0.5729685 0.7779822 0.5750786 0.7764614 0.5356164 0.7779822 0.5750786 0.7501119 0.5730041 0.7407297 0.5444441 0.8140723 0.487622 0.771805 0.4931598 0.7709602 0.4475885 0.8126776 0.4443795 0.7709602 0.4475885 0.775767 0.4028794 0.771805 0.4931598 0.7333467 0.5020876 0.7315118 0.4541807 0.7709602 0.4475885 0.7315118 0.4541807 0.7354055 0.4066652 0.8126776 0.4443795 0.8537386 0.442435 0.8581024 0.4817346 0.8537386 0.442435 0.8926269 0.435908 0.9014709 0.4722988 0.8173311 0.4031065 0.8565478 0.4062383 0.8537386 0.442435 0.8565478 0.4062383 0.8852491 0.410489 0.8926269 0.435908 0.8140723 0.487622 0.8581024 0.4817346 0.8634883 0.523679 0.8177513 0.5309437 0.8634883 0.523679 0.8672078 0.5657702 0.8581024 0.4817346 0.9014709 0.4722988 0.9096378 0.512968 0.8634883 0.523679 0.9096378 0.512968 0.9154996 0.5547655 0.4588639 0.03571552 0.5038762 0.022785 0.496985 0.05784243 0.4515053 0.07709854 0.496985 0.05784243 0.5037141 0.09072977 0.5038762 0.022785 0.5489697 0.01814049 0.54007 0.049281 0.496985 0.05784243 0.54007 0.049281 0.5352303 0.0752505 0.4515053 0.07709854 0.4034023 0.1032083 0.4162502 0.05280065 0.2102905 0.3703606 0.1881211 0.3434054 0.2521027 0.320859 0.4602468 0.1165997 0.4108303 0.1516056 0.4034023 0.1032083 0.4108303 0.1516056 0.3510996 0.2024123 0.3613138 0.1224063 0.4588639 0.03571552 0.4162502 0.05280065 0.4339563 0.01389175 0.9380319 0.3179702 0.9215517 0.350211 0.8881255 0.3385584 0.2678236 0.3446133 0.2521027 0.320859 0.3017281 0.2959003 0.3155244 0.3148573 0.3017281 0.2959003 0.3323569 0.2754127 0.9380319 0.3179702 0.9511353 0.2797361 0.9855067 0.2875123 0.9511353 0.2797361 0.9604764 0.2379907 0.9942845 0.2457579 0.8995524 0.3068173 0.9103793 0.2689745 0.9511353 0.2797361 0.9103793 0.2689745 0.9187475 0.2277181 0.9604764 0.2379907 0.8185819 0.1215457 0.8225626 0.163241 0.776711 0.1589183 0.7662784 0.1174677 0.776711 0.1589183 0.739712 0.1683403 0.8225626 0.163241 0.8246472 0.206529 0.7831955 0.1998243 0.776711 0.1589183 0.7831955 0.1998243 0.7550323 0.197466 0.7662784 0.1174677 0.758406 0.07510447 0.8172587 0.08327734 0.0316146 0.4422346 0.07038086 0.4446587 0.0420295 0.5057728 0.7219858 0.129468 0.7060143 0.08684802 0.758406 0.07510447 0.8185819 0.1215457 0.8172587 0.08327734 0.8703894 0.09795916 0.8720572 0.1331511 0.8703894 0.09795916 0.9171944 0.1115182 0.8172587 0.08327734 0.8263768 0.05201447 0.8770537 0.07080793 0.8703894 0.09795916 0.8770537 0.07080793 0.9108119 0.08808708 0.8720572 0.1331511 0.8731772 0.1736293 0.8225626 0.163241 0.8731772 0.1736293 0.8716512 0.2165289 0.8246472 0.206529 0.9223433 0.1460097 0.9227982 0.1857364 0.8731772 0.1736293 0.9227982 0.1857364 0.9187475 0.2277181 0.8716512 0.2165289 0.6203323 0.07174313 0.5809887 0.05525469 0.5918275 0.02591234 0.5809887 0.05525469 0.54007 0.049281 0.5489697 0.01814049 0.6024433 0.1041169 0.5631812 0.08643972 0.5809887 0.05525469 0.5631812 0.08643972 0.5352303 0.0752505 0.54007 0.049281 0.9996513 0.1596599 1 0.2026916 0.9656695 0.1952157 0.9650791 0.1538475 0.9656695 0.1952157 0.9227982 0.1857364 1 0.2026916 0.9942845 0.2457579 0.9604764 0.2379907 0.9656695 0.1952157 0.9604764 0.2379907 0.9187475 0.2277181 0.9650791 0.1538475 0.9570701 0.1163226 0.9902366 0.1180093 0.01053905 0.6443995 0.03049123 0.6198789 0.05328959 0.6514094 0.9223433 0.1460097 0.9171944 0.1115182 0.9570701 0.1163226 0.9171944 0.1115182 0.9108119 0.08808708 0.9371759 0.08305335 0.631431 0.04325217 0.6667616 0.06731212 0.6586918 0.09472447 0.6203323 0.07174313 0.6586918 0.09472447 0.6438149 0.1267678 0.0341767 0.6781952 0.05328959 0.6514094 0.08345174 0.6801254 0.6586918 0.09472447 0.6922975 0.1221697 0.681331 0.1531497 0.1955035 0.6540366 0.2140671 0.6175088 0.2514344 0.6323991 0.2140671 0.6175088 0.2251309 0.5782398 0.263977 0.5913407 0.1590533 0.6319316 0.1797832 0.5957831 0.2140671 0.6175088 0.1797832 0.5957831 0.195946 0.5699946 0.2251309 0.5782398 0.2328875 0.6692029 0.2514344 0.6323991 0.2880373 0.645434 0.6557111 0.3017299 0.6661686 0.328148 0.624274 0.3505621 0.2514344 0.6323991 0.263977 0.5913407 0.3032596 0.6058411 0.7069444 0.3730481 0.7452077 0.3654829 0.7354055 0.4066652 0.6557111 0.3017299 0.6381064 0.2727724 0.6686591 0.2459374 0.6381064 0.2727724 0.6094716 0.245984 0.6377609 0.218094 0.6137773 0.3214377 0.5991874 0.2902978 0.6381064 0.2727724 0.5991874 0.2902978 0.5859336 0.2651971 0.6094716 0.245984 0.2328875 0.6692029 0.2123987 0.7011595 0.175402 0.6890084 0.1955035 0.6540366 0.175402 0.6890084 0.1380757 0.6697444 0.6686591 0.2459374 0.6377609 0.218094 0.6624331 0.1861369 0.175402 0.6890084 0.1565451 0.7189668 0.118647 0.7034902 0.506419 0.3293973 0.5219019 0.3654829 0.4751208 0.3640482 0.4529928 0.326709 0.4751208 0.3640482 0.4399623 0.3654324 0.7007432 0.5181453 0.7333467 0.5020876 0.7407297 0.5444441 0.7116672 0.5641739 0.7407297 0.5444441 0.7501119 0.5730041 0.4529928 0.326709 0.4320642 0.2787948 0.4936628 0.2883008 0.4320642 0.2787948 0.4273716 0.2286159 0.4926579 0.2462844 0.4110341 0.3286545 0.3815572 0.2777417 0.4320642 0.2787948 0.3815572 0.2777417 0.3510996 0.2024123 0.4273716 0.2286159 0.506419 0.3293973 0.4936628 0.2883008 0.5502051 0.2938045 0.5620136 0.3291502 0.5502051 0.2938045 0.5991874 0.2902978 0.4936628 0.2883008 0.4926579 0.2462844 0.5482506 0.2585741 0.5502051 0.2938045 0.5482506 0.2585741 0.5859336 0.2651971 0.5620136 0.3291502 0.5739024 0.3619974 0.5219019 0.3654829 0.6972581 0.4662744 0.7315118 0.4541807 0.7333467 0.5020876 0.6137773 0.3214377 0.624274 0.3505621 0.5739024 0.3619974 0.6997969 0.4155718 0.7354055 0.4066652 0.7315118 0.4541807 0.1002023 0.1655316 0.1321322 0.1319453 0.154426 0.1727352 0.1263497 0.212359 0.154426 0.1727352 0.1832073 0.2003015 0.1321322 0.1319453 0.1666232 0.1026082 0.1844792 0.1407968 0.154426 0.1727352 0.1844792 0.1407968 0.1985403 0.1679995 0.1263497 0.212359 0.09631645 0.2550333 0.06977993 0.1980764 0.09631645 0.2550333 0.06269723 0.2838252 0.03941529 0.2198262 0.1613962 0.2450188 0.1357768 0.2960673 0.09631645 0.2550333 0.1357768 0.2960673 0.1035433 0.3581355 0.06269723 0.2838252 0.1002023 0.1655316 0.06977993 0.1980764 0.05203372 0.1457493 0.0797891 0.1166622 0.05203372 0.1457493 0.03712987 0.1033306 0.06977993 0.1980764 0.03941529 0.2198262 0.02634811 0.1650865 0.05203372 0.1457493 0.02634811 0.1650865 0.02167809 0.1278311 0.0797891 0.1166622 0.1123466 0.08752489 0.1321322 0.1319453 0.1123466 0.08752489 0.1485497 0.0624845 0.1666232 0.1026082 0.06240463 0.07357287 0.09474247 0.04712826 0.1123466 0.08752489 0.09474247 0.04712826 0.1316159 0.02631777 0.1485497 0.0624845 0.2588509 0.1085207 0.2204434 0.1211787 0.2047289 0.08281117 0.2204434 0.1211787 0.1844792 0.1407968 0.1666232 0.1026082 0.2681535 0.1508381 0.2283604 0.1616417 0.2204434 0.1211787 0.2283604 0.1616417 0.1985403 0.1679995 0.1844792 0.1407968 0.243121 0.06991767 0.2047289 0.08281117 0.1872419 0.04568797 0.3601897 0.5465064 0.3510996 0.5082429 0.383949 0.4929028 0.2047289 0.08281117 0.1666232 0.1026082 0.1485497 0.0624845 0.1872419 0.04568797 0.1485497 0.0624845 0.1316159 0.02631777 0.2249636 0.03587353 0.2582558 0.03177922 0.2784714 0.06129109 0.3780137 0.5824205 0.4070945 0.6122797 0.3868058 0.6358552 0.3941577 0.5317101 0.4102472 0.5676223 0.3780137 0.5824205 0.4102472 0.5676223 0.4257256 0.5935794 0.4070945 0.6122797 0.243121 0.06991767 0.2784714 0.06129109 0.2962344 0.09746271 0.2588509 0.1085207 0.2962344 0.09746271 0.3083915 0.1384142 0.2784714 0.06129109 0.3071929 0.05491495 0.3281891 0.08837014 0.2962344 0.09746271 0.3281891 0.08837014 0.3437561 0.1270907 0.2602016 0.2415361 0.2085068 0.2513861 0.2224552 0.2050511 0.2670292 0.1960254 0.2224552 0.2050511 0.2283604 0.1616417 0.2085068 0.2513861 0.1613962 0.2450188 0.1832073 0.2003015 0.2224552 0.2050511 0.1832073 0.2003015 0.1985403 0.1679995 0.2670292 0.1960254 0.3117889 0.1822659 0.3090005 0.2255445 0.3117889 0.1822659 0.3510997 0.1689057 0.3505833 0.2104665 0.2681535 0.1508381 0.3083915 0.1384142 0.3117889 0.1822659 0.3083915 0.1384142 0.3437561 0.1270907 0.3510997 0.1689057 0.2602016 0.2415361 0.3090005 0.2255445 0.3026002 0.264776 0.252394 0.2848236 0.3026002 0.264776 0.3017281 0.2959003 0.3090005 0.2255445 0.3505833 0.2104665 0.3425704 0.2484239 0.3026002 0.264776 0.3425704 0.2484239 0.3323569 0.2754127 0.252394 0.2848236 0.1922944 0.3006257 0.2085068 0.2513861 0.1922944 0.3006257 0.1357768 0.2960673 0.1613962 0.2450188 0.2521027 0.320859 0.1881211 0.3434054 0.1922944 0.3006257 0.1881211 0.3434054 0.1035433 0.3581355 0.1357768 0.2960673 0.09799665 0.5649649 0.1277285 0.5210562 0.1524301 0.5622419 0.1270473 0.6005513 0.1524301 0.5622419 0.1797832 0.5957831 0.1277285 0.5210562 0.1652224 0.4914324 0.183272 0.5371637 0.1524301 0.5622419 0.183272 0.5371637 0.195946 0.5699946 0.1270473 0.6005513 0.1039634 0.6423643 0.07387322 0.6110409 0.1039634 0.6423643 0.08345174 0.6801254 0.05328959 0.6514094 0.1590533 0.6319316 0.1380757 0.6697444 0.1039634 0.6423643 0.1380757 0.6697444 0.118647 0.7034902 0.08345174 0.6801254 0.09799665 0.5649649 0.07387322 0.6110409 0.04861301 0.5799474 0.07041275 0.5302414 0.04861301 0.5799474 0.02466118 0.5583245 0.07387322 0.6110409 0.05328959 0.6514094 0.03049123 0.6198789 0.04861301 0.5799474 0.03049123 0.6198789 0.01708549 0.5942625 0.07041275 0.5302414 0.1013988 0.4763972 0.1277285 0.5210562 0.1013988 0.4763972 0.1439847 0.4388477 0.1652224 0.4914324 0.0420295 0.5057728 0.07038086 0.4446587 0.1013988 0.4763972 0.2633433 0.5009985 0.2664529 0.5466206 0.222733 0.5350444 0.2126315 0.4882105 0.222733 0.5350444 0.183272 0.5371637 0.2664529 0.5466206 0.263977 0.5913407 0.2251309 0.5782398 0.222733 0.5350444 0.2251309 0.5782398 0.195946 0.5699946 0.2126315 0.4882105 0.2005845 0.438026 0.2591301 0.4572339 0.2005845 0.438026 0.1999967 0.3945152 0.2618251 0.4207423 0.1652224 0.4914324 0.1439847 0.4388477 0.2005845 0.438026 0.2633433 0.5009985 0.2591301 0.4572339 0.3075538 0.4797731 0.8317966 0.3656933 0.8726806 0.3736029 0.8565478 0.4062383 0.2591301 0.4572339 0.2618251 0.4207423 0.3092449 0.44823 0.8726806 0.3736029 0.9061972 0.3902013 0.8852491 0.410489 0.3107453 0.5194042 0.3100714 0.562629 0.2664529 0.5466206 0.3100714 0.562629 0.3032596 0.6058411 0.263977 0.5913407 0.3510996 0.536198 0.3483768 0.5776361 0.3100714 0.562629 0.3483768 0.5776361 0.3378773 0.6186784 0.3032596 0.6058411 0.5832757 0.61286 0.6403846 0.6387957 0.6164137 0.6731519 0.1439847 0.4388477 0.151544 0.3703606 0.1999967 0.3945152 0.6901708 0.5336377 0.6888804 0.5813606 0.6253872 0.5460377 0.09933078 0.4014477 0.1439847 0.4388477 0.1013988 0.4763972 0.6972296 0.693066 0.7427956 0.6786965 0.7408267 0.7554832 0.6403846 0.6387957 0.5832757 0.61286 0.6253872 0.5460377</float_array>
          <technique_common>
            <accessor source="#Cube_001-mesh-map-0-array" count="1740" stride="2">
              <param name="S" type="float"/>
              <param name="T" type="float"/>
            </accessor>
          </technique_common>
        </source>
        <vertices id="Cube_001-mesh-vertices">
          <input semantic="POSITION" source="#Cube_001-mesh-positions"/>
        </vertices>
        <polylist material="vermelho_001-material" count="580">
          <input semantic="VERTEX" source="#Cube_001-mesh-vertices" offset="0"/>
          <input semantic="NORMAL" source="#Cube_001-mesh-normals" offset="1"/>
          <input semantic="TEXCOORD" source="#Cube_001-mesh-map-0" offset="2" set="0"/>
          <vcount>3 3 3 3 3 3 3 3 3 3 3 3 3 3 3 3 3 3 3 3 3 3 3 3 3 3 3 3 3 3 3 3 3 3 3 3 3 3 3 3 3 3 3 3 3 3 3 3 3 3 3 3 3 3 3 3 3 3 3 3 3 3 3 3 3 3 3 3 3 3 3 3 3 3 3 3 3 3 3 3 3 3 3 3 3 3 3 3 3 3 3 3 3 3 3 3 3 3 3 3 3 3 3 3 3 3 3 3 3 3 3 3 3 3 3 3 3 3 3 3 3 3 3 3 3 3 3 3 3 3 3 3 3 3 3 3 3 3 3 3 3 3 3 3 3 3 3 3 3 3 3 3 3 3 3 3 3 3 3 3 3 3 3 3 3 3 3 3 3 3 3 3 3 3 3 3 3 3 3 3 3 3 3 3 3 3 3 3 3 3 3 3 3 3 3 3 3 3 3 3 3 3 3 3 3 3 3 3 3 3 3 3 3 3 3 3 3 3 3 3 3 3 3 3 3 3 3 3 3 3 3 3 3 3 3 3 3 3 3 3 3 3 3 3 3 3 3 3 3 3 3 3 3 3 3 3 3 3 3 3 3 3 3 3 3 3 3 3 3 3 3 3 3 3 3 3 3 3 3 3 3 3 3 3 3 3 3 3 3 3 3 3 3 3 3 3 3 3 3 3 3 3 3 3 3 3 3 3 3 3 3 3 3 3 3 3 3 3 3 3 3 3 3 3 3 3 3 3 3 3 3 3 3 3 3 3 3 3 3 3 3 3 3 3 3 3 3 3 3 3 3 3 3 3 3 3 3 3 3 3 3 3 3 3 3 3 3 3 3 3 3 3 3 3 3 3 3 3 3 3 3 3 3 3 3 3 3 3 3 3 3 3 3 3 3 3 3 3 3 3 3 3 3 3 3 3 3 3 3 3 3 3 3 3 3 3 3 3 3 3 3 3 3 3 3 3 3 3 3 3 3 3 3 3 3 3 3 3 3 3 3 3 3 3 3 3 3 3 3 3 3 3 3 3 3 3 3 3 3 3 3 3 3 3 3 3 3 3 3 3 3 3 3 3 3 3 3 3 3 3 3 3 3 3 3 3 3 3 3 3 3 3 3 3 3 3 3 3 3 3 3 3 3 3 3 3 3 3 3 3 3 3 3 3 3 3 3 3 3 3 3 3 3 3 3 3 3 3 3 3 3 3 3 3 3 3 3 3 3 3 3 3 3 3 3 3 3 3 3 3 3 3 3 3 3 3 3 3 3 3 3 3 3 3 3 3 3 3 3 3 3 3 3 3 3 3 3 3 3 3 </vcount>
          <p>4 0 0 1 1 1 0 2 2 5 3 3 169 4 4 1 1 5 163 5 6 5 3 7 4 0 8 162 6 9 168 7 10 5 3 11 0 2 12 6 8 13 2 9 14 2 9 15 231 10 16 232 11 17 1 1 18 170 12 19 6 8 20 6 8 21 278 13 22 231 10 23 2 9 24 3 14 25 0 2 26 7 15 27 220 16 28 3 14 29 232 11 30 7 15 31 2 9 32 233 17 33 219 18 34 7 15 35 0 2 36 8 19 37 4 0 38 4 0 39 164 20 40 163 5 41 3 14 42 221 21 43 8 19 44 8 19 45 276 22 46 164 20 47 9 23 48 14 24 49 10 25 50 10 25 51 162 6 52 163 5 53 13 26 54 165 27 55 14 24 56 14 24 57 270 28 58 162 6 59 10 25 60 11 29 61 9 23 62 15 30 63 223 31 64 11 29 65 163 5 66 15 30 67 10 25 68 164 20 69 222 32 70 15 30 71 9 23 72 16 33 73 12 34 74 12 34 75 225 35 76 226 36 77 11 29 78 224 37 79 16 33 80 16 33 81 288 38 82 225 35 83 12 34 84 13 26 85 9 23 86 17 39 87 166 40 88 13 26 89 226 36 90 17 39 91 12 34 92 18 41 93 23 42 94 19 43 95 19 43 96 177 44 97 178 45 98 22 46 99 171 47 100 23 42 101 23 42 102 271 48 103 177 44 104 19 43 105 20 49 106 18 41 107 24 50 108 226 36 109 20 49 110 178 45 111 24 50 112 19 43 113 18 41 114 25 51 115 21 52 116 21 52 117 234 53 118 235 54 119 20 49 120 225 35 121 25 51 122 25 51 123 288 38 124 234 53 125 21 52 126 22 46 127 18 41 128 26 55 129 172 56 130 22 46 131 235 54 132 26 55 133 21 52 134 236 57 135 173 58 136 26 55 137 31 59 138 28 60 139 27 61 140 32 62 141 172 56 142 28 60 143 175 63 144 32 62 145 31 59 146 174 64 147 171 47 148 32 62 149 27 61 150 33 65 151 29 66 152 29 66 153 237 67 154 238 68 155 28 60 156 173 58 157 33 65 158 33 65 159 279 69 160 237 67 161 29 66 162 30 70 163 27 61 164 34 71 165 241 72 166 30 70 167 238 68 168 34 71 169 29 66 170 239 73 171 240 74 172 34 71 173 27 61 174 35 75 175 31 59 176 31 59 177 176 76 178 175 63 179 30 70 180 242 77 181 35 75 182 35 75 183 280 78 184 176 76 185 36 79 186 41 80 187 37 81 188 37 81 189 186 82 190 187 83 191 40 84 192 180 85 193 41 80 194 41 80 195 272 86 196 186 82 197 37 81 198 38 87 199 36 79 200 42 88 201 241 72 202 38 87 203 187 83 204 42 88 205 37 81 206 188 89 207 242 77 208 42 88 209 36 79 210 43 90 211 39 91 212 39 91 213 246 92 214 247 93 215 38 87 216 240 74 217 43 90 218 43 90 219 289 94 220 246 92 221 39 91 222 40 84 223 36 79 224 44 95 225 181 96 226 40 84 227 247 93 228 44 95 229 39 91 230 248 97 231 182 98 232 44 95 233 45 99 234 50 100 235 46 101 236 46 101 237 195 102 238 196 103 239 49 104 240 267 105 241 50 100 242 50 100 243 273 106 244 195 102 245 46 101 246 47 107 247 45 99 248 51 108 249 262 109 250 47 107 251 196 103 252 51 108 253 46 101 254 197 110 255 261 111 256 51 108 257 45 99 258 52 112 259 48 113 260 48 113 261 266 114 262 265 115 263 47 107 264 263 116 265 52 112 266 52 112 267 286 117 268 266 114 269 48 113 270 49 104 271 45 99 272 53 118 273 268 119 274 49 104 275 265 115 276 53 118 277 48 113 278 264 120 279 269 121 280 53 118 281 54 122 282 59 123 283 55 124 284 55 124 285 174 64 286 175 63 287 58 125 288 177 44 289 59 123 290 59 123 291 271 48 292 174 64 293 55 124 294 56 126 295 54 122 296 60 127 297 244 128 298 56 126 299 175 63 300 60 127 301 55 124 302 176 76 303 243 129 304 60 127 305 54 122 306 61 130 307 57 131 308 57 131 309 189 132 310 190 133 311 56 126 312 245 134 313 61 130 314 61 130 315 285 135 316 189 132 317 57 131 318 58 125 319 54 122 320 62 136 321 178 45 322 58 125 323 190 133 324 62 136 325 57 131 326 67 137 327 64 138 328 63 139 329 68 140 330 184 141 331 64 138 332 187 83 333 68 140 334 67 137 335 186 82 336 183 142 337 68 140 338 63 139 339 69 143 340 65 144 341 65 144 342 252 145 343 253 146 344 64 138 345 185 147 346 69 143 347 69 143 348 282 148 349 252 145 350 65 144 351 66 149 352 63 139 353 70 150 354 244 128 355 66 149 356 253 146 357 70 150 358 65 144 359 254 151 360 245 134 361 70 150 362 63 139 363 71 152 364 67 137 365 67 137 366 188 89 367 187 83 368 66 149 369 243 129 370 71 152 371 71 152 372 280 78 373 188 89 374 72 153 375 77 154 376 73 155 377 73 155 378 267 105 379 268 119 380 76 156 381 192 157 382 77 154 383 77 154 384 273 106 385 267 105 386 73 155 387 74 158 388 72 153 389 78 159 390 256 160 391 74 158 392 268 119 393 78 159 394 73 155 395 269 121 396 255 161 397 78 159 398 72 153 399 79 162 400 75 163 401 75 163 402 233 17 403 232 11 404 74 158 405 257 164 406 79 162 407 79 162 408 287 165 409 233 17 410 75 163 411 76 156 412 72 153 413 80 166 414 193 167 415 76 156 416 232 11 417 80 166 418 75 163 419 231 10 420 194 168 421 80 166 422 81 169 423 86 170 424 82 171 425 82 171 426 165 27 427 166 40 428 85 172 429 168 7 430 86 170 431 86 170 432 270 28 433 165 27 434 82 171 435 83 173 436 81 169 437 87 174 438 199 175 439 83 173 440 166 40 441 87 174 442 82 171 443 81 169 444 88 176 445 84 177 446 84 177 447 228 178 448 229 179 449 83 173 450 200 180 451 88 176 452 88 176 453 284 181 454 228 178 455 84 177 456 85 172 457 81 169 458 89 182 459 169 4 460 85 172 461 229 179 462 89 182 463 84 177 464 230 183 465 170 12 466 89 182 467 94 184 468 91 185 469 90 186 470 95 187 471 193 167 472 91 185 473 196 103 474 95 187 475 94 184 476 195 102 477 192 157 478 95 187 479 90 186 480 96 188 481 92 189 482 92 189 483 230 183 484 229 179 485 91 185 486 194 168 487 96 188 488 96 188 489 278 13 490 230 183 491 92 189 492 93 190 493 90 186 494 97 191 495 259 192 496 93 190 497 229 179 498 97 191 499 92 189 500 228 178 501 258 193 502 97 191 503 90 186 504 98 194 505 94 184 506 94 184 507 197 110 508 196 103 509 93 190 510 260 195 511 98 194 512 98 194 513 283 196 514 197 110 515 103 197 516 100 198 517 99 199 518 104 200 519 202 201 520 100 198 521 205 202 522 104 200 523 103 197 524 204 203 525 201 204 526 104 200 527 99 199 528 105 205 529 101 206 530 101 206 531 251 207 532 250 208 533 100 198 534 203 209 535 105 205 536 105 205 537 282 148 538 251 207 539 101 206 540 102 210 541 99 199 542 106 211 543 262 109 544 102 210 545 250 208 546 106 211 547 101 206 548 249 212 549 263 116 550 106 211 551 99 199 552 107 213 553 103 197 554 103 197 555 206 214 556 205 202 557 102 210 558 261 111 559 107 213 560 107 213 561 283 196 562 206 214 563 108 215 564 113 216 565 109 217 566 109 217 567 180 85 568 181 96 569 112 218 570 183 142 571 113 216 572 113 216 573 272 86 574 180 85 575 109 217 576 110 219 577 108 215 578 114 220 579 265 115 580 110 219 581 181 96 582 114 220 583 109 217 584 182 98 585 264 120 586 114 220 587 108 215 588 115 221 589 111 222 590 111 222 591 249 212 592 250 208 593 110 219 594 266 114 595 115 221 596 115 221 597 286 117 598 249 212 599 111 222 600 112 218 601 108 215 602 116 223 603 184 141 604 112 218 605 250 208 606 116 223 607 111 222 608 251 207 609 185 147 610 116 223 611 117 224 612 122 225 613 118 226 614 118 226 615 207 227 616 208 228 617 121 229 618 210 230 619 122 225 620 122 225 621 275 231 622 207 227 623 118 226 624 119 232 625 117 224 626 123 233 627 247 93 628 119 232 629 208 228 630 123 233 631 118 226 632 209 234 633 248 97 634 123 233 635 117 224 636 124 235 637 120 236 638 120 236 639 239 73 640 238 68 641 119 232 642 246 92 643 124 235 644 124 235 645 289 94 646 239 73 647 120 236 648 121 229 649 117 224 650 125 237 651 211 238 652 121 229 653 238 68 654 125 237 655 120 236 656 237 67 657 212 239 658 125 237 659 130 240 660 127 241 661 126 242 662 131 243 663 211 238 664 127 241 665 214 244 666 131 243 667 130 240 668 213 245 669 210 230 670 131 243 671 126 242 672 132 246 673 128 247 674 128 247 675 236 57 676 235 54 677 127 241 678 212 239 679 132 246 680 132 246 681 279 69 682 236 57 683 128 247 684 129 248 685 126 242 686 133 249 687 223 31 688 129 248 689 235 54 690 133 249 691 128 247 692 234 53 693 224 37 694 133 249 695 126 242 696 134 250 697 130 240 698 130 240 699 215 251 700 214 244 701 129 248 702 222 32 703 134 250 704 134 250 705 276 22 706 215 251 707 135 252 708 140 253 709 136 254 710 136 254 711 213 245 712 214 244 713 139 255 714 207 227 715 140 253 716 140 253 717 275 231 718 213 245 719 136 254 720 137 256 721 135 252 722 141 257 723 220 16 724 137 256 725 214 244 726 141 257 727 136 254 728 215 251 729 221 21 730 141 257 731 135 252 732 142 258 733 138 259 734 138 259 735 257 164 736 256 160 737 137 256 738 219 18 739 142 258 740 142 258 741 287 165 742 257 164 743 138 259 744 139 255 745 135 252 746 143 260 747 208 228 748 139 255 749 256 160 750 143 260 751 138 259 752 255 161 753 209 234 754 143 260 755 144 261 756 149 262 757 145 263 758 145 263 759 204 203 760 205 202 761 148 264 762 216 265 763 149 262 764 149 262 765 274 266 766 204 203 767 145 263 768 146 267 769 144 261 770 150 268 771 259 192 772 146 267 773 205 202 774 150 268 775 145 263 776 206 214 777 260 195 778 150 268 779 144 261 780 151 269 781 147 270 782 147 270 783 200 180 784 199 175 785 146 267 786 258 193 787 151 269 788 151 269 789 284 181 790 200 180 791 147 270 792 148 264 793 144 261 794 152 271 795 217 272 796 148 264 797 199 175 798 152 271 799 147 270 800 153 273 801 158 274 802 154 275 803 154 275 804 216 265 805 217 272 806 157 276 807 201 204 808 158 274 809 158 274 810 274 266 811 216 265 812 154 275 813 155 277 814 153 273 815 159 278 816 190 133 817 155 277 818 217 272 819 159 278 820 154 275 821 153 273 822 160 279 823 156 280 824 156 280 825 254 151 826 253 146 827 155 277 828 189 132 829 160 279 830 160 279 831 285 135 832 254 151 833 156 280 834 157 276 835 153 273 836 161 281 837 202 201 838 157 276 839 253 146 840 161 281 841 156 280 842 252 145 843 203 209 844 161 281 845 227 282 846 167 283 847 17 39 848 218 284 849 191 285 850 159 278 851 290 286 852 291 287 853 277 288 854 191 285 855 179 289 856 62 136 857 179 289 858 227 282 859 24 50 860 167 283 861 198 290 862 87 174 863 291 287 864 152 271 865 198 290 866 291 287 867 167 283 868 277 288 869 218 284 870 291 287 871 290 286 872 277 288 873 179 289 874 290 286 875 4 0 876 5 3 877 1 1 878 5 3 879 168 7 880 169 4 881 163 5 882 162 6 883 5 3 884 162 6 885 270 28 886 168 7 887 0 2 888 1 1 889 6 8 890 2 9 891 6 8 892 231 10 893 1 1 894 169 4 895 170 12 896 6 8 897 170 12 898 278 13 899 2 9 900 7 15 901 3 14 902 7 15 903 219 18 904 220 16 905 232 11 906 233 17 907 7 15 908 233 17 909 287 165 910 219 18 911 0 2 912 3 14 913 8 19 914 4 0 915 8 19 916 164 20 917 3 14 918 220 16 919 221 21 920 8 19 921 221 21 922 276 22 923 9 23 924 13 26 925 14 24 926 10 25 927 14 24 928 162 6 929 13 26 930 166 40 931 165 27 932 14 24 933 165 27 934 270 28 935 10 25 936 15 30 937 11 29 938 15 30 939 222 32 940 223 31 941 163 5 942 164 20 943 15 30 944 164 20 945 276 22 946 222 32 947 9 23 948 11 29 949 16 33 950 12 34 951 16 33 952 225 35 953 11 29 954 223 31 955 224 37 956 16 33 957 224 37 958 288 38 959 12 34 960 17 39 961 13 26 962 17 39 963 167 283 964 166 40 965 226 36 966 227 282 967 17 39 968 18 41 969 22 46 970 23 42 971 19 43 972 23 42 973 177 44 974 22 46 975 172 56 976 171 47 977 23 42 978 171 47 979 271 48 980 19 43 981 24 50 982 20 49 983 24 50 984 227 282 985 226 36 986 178 45 987 179 289 988 24 50 989 18 41 990 20 49 991 25 51 992 21 52 993 25 51 994 234 53 995 20 49 996 226 36 997 225 35 998 25 51 999 225 35 1000 288 38 1001 21 52 1002 26 55 1003 22 46 1004 26 55 1005 173 58 1006 172 56 1007 235 54 1008 236 57 1009 26 55 1010 236 57 1011 279 69 1012 173 58 1013 31 59 1014 32 62 1015 28 60 1016 32 62 1017 171 47 1018 172 56 1019 175 63 1020 174 64 1021 32 62 1022 174 64 1023 271 48 1024 171 47 1025 27 61 1026 28 60 1027 33 65 1028 29 66 1029 33 65 1030 237 67 1031 28 60 1032 172 56 1033 173 58 1034 33 65 1035 173 58 1036 279 69 1037 29 66 1038 34 71 1039 30 70 1040 34 71 1041 240 74 1042 241 72 1043 238 68 1044 239 73 1045 34 71 1046 239 73 1047 289 94 1048 240 74 1049 27 61 1050 30 70 1051 35 75 1052 31 59 1053 35 75 1054 176 76 1055 30 70 1056 241 72 1057 242 77 1058 35 75 1059 242 77 1060 280 78 1061 36 79 1062 40 84 1063 41 80 1064 37 81 1065 41 80 1066 186 82 1067 40 84 1068 181 96 1069 180 85 1070 41 80 1071 180 85 1072 272 86 1073 37 81 1074 42 88 1075 38 87 1076 42 88 1077 242 77 1078 241 72 1079 187 83 1080 188 89 1081 42 88 1082 188 89 1083 280 78 1084 242 77 1085 36 79 1086 38 87 1087 43 90 1088 39 91 1089 43 90 1090 246 92 1091 38 87 1092 241 72 1093 240 74 1094 43 90 1095 240 74 1096 289 94 1097 39 91 1098 44 95 1099 40 84 1100 44 95 1101 182 98 1102 181 96 1103 247 93 1104 248 97 1105 44 95 1106 248 97 1107 281 291 1108 182 98 1109 45 99 1110 49 104 1111 50 100 1112 46 101 1113 50 100 1114 195 102 1115 49 104 1116 268 119 1117 267 105 1118 50 100 1119 267 105 1120 273 106 1121 46 101 1122 51 108 1123 47 107 1124 51 108 1125 261 111 1126 262 109 1127 196 103 1128 197 110 1129 51 108 1130 197 110 1131 283 196 1132 261 111 1133 45 99 1134 47 107 1135 52 112 1136 48 113 1137 52 112 1138 266 114 1139 47 107 1140 262 109 1141 263 116 1142 52 112 1143 263 116 1144 286 117 1145 48 113 1146 53 118 1147 49 104 1148 53 118 1149 269 121 1150 268 119 1151 265 115 1152 264 120 1153 53 118 1154 264 120 1155 281 291 1156 269 121 1157 54 122 1158 58 125 1159 59 123 1160 55 124 1161 59 123 1162 174 64 1163 58 125 1164 178 45 1165 177 44 1166 59 123 1167 177 44 1168 271 48 1169 55 124 1170 60 127 1171 56 126 1172 60 127 1173 243 129 1174 244 128 1175 175 63 1176 176 76 1177 60 127 1178 176 76 1179 280 78 1180 243 129 1181 54 122 1182 56 126 1183 61 130 1184 57 131 1185 61 130 1186 189 132 1187 56 126 1188 244 128 1189 245 134 1190 61 130 1191 245 134 1192 285 135 1193 57 131 1194 62 136 1195 58 125 1196 62 136 1197 179 289 1198 178 45 1199 190 133 1200 191 285 1201 62 136 1202 67 137 1203 68 140 1204 64 138 1205 68 140 1206 183 142 1207 184 141 1208 187 83 1209 186 82 1210 68 140 1211 186 82 1212 272 86 1213 183 142 1214 63 139 1215 64 138 1216 69 143 1217 65 144 1218 69 143 1219 252 145 1220 64 138 1221 184 141 1222 185 147 1223 69 143 1224 185 147 1225 282 148 1226 65 144 1227 70 150 1228 66 149 1229 70 150 1230 245 134 1231 244 128 1232 253 146 1233 254 151 1234 70 150 1235 254 151 1236 285 135 1237 245 134 1238 63 139 1239 66 149 1240 71 152 1241 67 137 1242 71 152 1243 188 89 1244 66 149 1245 244 128 1246 243 129 1247 71 152 1248 243 129 1249 280 78 1250 72 153 1251 76 156 1252 77 154 1253 73 155 1254 77 154 1255 267 105 1256 76 156 1257 193 167 1258 192 157 1259 77 154 1260 192 157 1261 273 106 1262 73 155 1263 78 159 1264 74 158 1265 78 159 1266 255 161 1267 256 160 1268 268 119 1269 269 121 1270 78 159 1271 269 121 1272 281 291 1273 255 161 1274 72 153 1275 74 158 1276 79 162 1277 75 163 1278 79 162 1279 233 17 1280 74 158 1281 256 160 1282 257 164 1283 79 162 1284 257 164 1285 287 165 1286 75 163 1287 80 166 1288 76 156 1289 80 166 1290 194 168 1291 193 167 1292 232 11 1293 231 10 1294 80 166 1295 231 10 1296 278 13 1297 194 168 1298 81 169 1299 85 172 1300 86 170 1301 82 171 1302 86 170 1303 165 27 1304 85 172 1305 169 4 1306 168 7 1307 86 170 1308 168 7 1309 270 28 1310 82 171 1311 87 174 1312 83 173 1313 87 174 1314 198 290 1315 199 175 1316 166 40 1317 167 283 1318 87 174 1319 81 169 1320 83 173 1321 88 176 1322 84 177 1323 88 176 1324 228 178 1325 83 173 1326 199 175 1327 200 180 1328 88 176 1329 200 180 1330 284 181 1331 84 177 1332 89 182 1333 85 172 1334 89 182 1335 170 12 1336 169 4 1337 229 179 1338 230 183 1339 89 182 1340 230 183 1341 278 13 1342 170 12 1343 94 184 1344 95 187 1345 91 185 1346 95 187 1347 192 157 1348 193 167 1349 196 103 1350 195 102 1351 95 187 1352 195 102 1353 273 106 1354 192 157 1355 90 186 1356 91 185 1357 96 188 1358 92 189 1359 96 188 1360 230 183 1361 91 185 1362 193 167 1363 194 168 1364 96 188 1365 194 168 1366 278 13 1367 92 189 1368 97 191 1369 93 190 1370 97 191 1371 258 193 1372 259 192 1373 229 179 1374 228 178 1375 97 191 1376 228 178 1377 284 181 1378 258 193 1379 90 186 1380 93 190 1381 98 194 1382 94 184 1383 98 194 1384 197 110 1385 93 190 1386 259 192 1387 260 195 1388 98 194 1389 260 195 1390 283 196 1391 103 197 1392 104 200 1393 100 198 1394 104 200 1395 201 204 1396 202 201 1397 205 202 1398 204 203 1399 104 200 1400 204 203 1401 274 266 1402 201 204 1403 99 199 1404 100 198 1405 105 205 1406 101 206 1407 105 205 1408 251 207 1409 100 198 1410 202 201 1411 203 209 1412 105 205 1413 203 209 1414 282 148 1415 101 206 1416 106 211 1417 102 210 1418 106 211 1419 263 116 1420 262 109 1421 250 208 1422 249 212 1423 106 211 1424 249 212 1425 286 117 1426 263 116 1427 99 199 1428 102 210 1429 107 213 1430 103 197 1431 107 213 1432 206 214 1433 102 210 1434 262 109 1435 261 111 1436 107 213 1437 261 111 1438 283 196 1439 108 215 1440 112 218 1441 113 216 1442 109 217 1443 113 216 1444 180 85 1445 112 218 1446 184 141 1447 183 142 1448 113 216 1449 183 142 1450 272 86 1451 109 217 1452 114 220 1453 110 219 1454 114 220 1455 264 120 1456 265 115 1457 181 96 1458 182 98 1459 114 220 1460 182 98 1461 281 291 1462 264 120 1463 108 215 1464 110 219 1465 115 221 1466 111 222 1467 115 221 1468 249 212 1469 110 219 1470 265 115 1471 266 114 1472 115 221 1473 266 114 1474 286 117 1475 111 222 1476 116 223 1477 112 218 1478 116 223 1479 185 147 1480 184 141 1481 250 208 1482 251 207 1483 116 223 1484 251 207 1485 282 148 1486 185 147 1487 117 224 1488 121 229 1489 122 225 1490 118 226 1491 122 225 1492 207 227 1493 121 229 1494 211 238 1495 210 230 1496 122 225 1497 210 230 1498 275 231 1499 118 226 1500 123 233 1501 119 232 1502 123 233 1503 248 97 1504 247 93 1505 208 228 1506 209 234 1507 123 233 1508 209 234 1509 281 291 1510 248 97 1511 117 224 1512 119 232 1513 124 235 1514 120 236 1515 124 235 1516 239 73 1517 119 232 1518 247 93 1519 246 92 1520 124 235 1521 246 92 1522 289 94 1523 120 236 1524 125 237 1525 121 229 1526 125 237 1527 212 239 1528 211 238 1529 238 68 1530 237 67 1531 125 237 1532 237 67 1533 279 69 1534 212 239 1535 130 240 1536 131 243 1537 127 241 1538 131 243 1539 210 230 1540 211 238 1541 214 244 1542 213 245 1543 131 243 1544 213 245 1545 275 231 1546 210 230 1547 126 242 1548 127 241 1549 132 246 1550 128 247 1551 132 246 1552 236 57 1553 127 241 1554 211 238 1555 212 239 1556 132 246 1557 212 239 1558 279 69 1559 128 247 1560 133 249 1561 129 248 1562 133 249 1563 224 37 1564 223 31 1565 235 54 1566 234 53 1567 133 249 1568 234 53 1569 288 38 1570 224 37 1571 126 242 1572 129 248 1573 134 250 1574 130 240 1575 134 250 1576 215 251 1577 129 248 1578 223 31 1579 222 32 1580 134 250 1581 222 32 1582 276 22 1583 135 252 1584 139 255 1585 140 253 1586 136 254 1587 140 253 1588 213 245 1589 139 255 1590 208 228 1591 207 227 1592 140 253 1593 207 227 1594 275 231 1595 136 254 1596 141 257 1597 137 256 1598 141 257 1599 221 21 1600 220 16 1601 214 244 1602 215 251 1603 141 257 1604 215 251 1605 276 22 1606 221 21 1607 135 252 1608 137 256 1609 142 258 1610 138 259 1611 142 258 1612 257 164 1613 137 256 1614 220 16 1615 219 18 1616 142 258 1617 219 18 1618 287 165 1619 138 259 1620 143 260 1621 139 255 1622 143 260 1623 209 234 1624 208 228 1625 256 160 1626 255 161 1627 143 260 1628 255 161 1629 281 291 1630 209 234 1631 144 261 1632 148 264 1633 149 262 1634 145 263 1635 149 262 1636 204 203 1637 148 264 1638 217 272 1639 216 265 1640 149 262 1641 216 265 1642 274 266 1643 145 263 1644 150 268 1645 146 267 1646 150 268 1647 260 195 1648 259 192 1649 205 202 1650 206 214 1651 150 268 1652 206 214 1653 283 196 1654 260 195 1655 144 261 1656 146 267 1657 151 269 1658 147 270 1659 151 269 1660 200 180 1661 146 267 1662 259 192 1663 258 193 1664 151 269 1665 258 193 1666 284 181 1667 147 270 1668 152 271 1669 148 264 1670 152 271 1671 218 284 1672 217 272 1673 199 175 1674 198 290 1675 152 271 1676 153 273 1677 157 276 1678 158 274 1679 154 275 1680 158 274 1681 216 265 1682 157 276 1683 202 201 1684 201 204 1685 158 274 1686 201 204 1687 274 266 1688 154 275 1689 159 278 1690 155 277 1691 159 278 1692 191 285 1693 190 133 1694 217 272 1695 218 284 1696 159 278 1697 153 273 1698 155 277 1699 160 279 1700 156 280 1701 160 279 1702 254 151 1703 155 277 1704 190 133 1705 189 132 1706 160 279 1707 189 132 1708 285 135 1709 156 280 1710 161 281 1711 157 276 1712 161 281 1713 203 209 1714 202 201 1715 253 146 1716 252 145 1717 161 281 1718 252 145 1719 282 148 1720 203 209 1721 227 282 1722 277 288 1723 167 283 1724 218 284 1725 290 286 1726 191 285 1727 191 285 1728 290 286 1729 179 289 1730 291 287 1731 218 284 1732 152 271 1733 291 287 1734 198 290 1735 167 283 1736 277 288 1737 227 282 1738 179 289 1739</p>
        </polylist>
      </mesh>
    </geometry>
  </library_geometries>
  <library_controllers/>
  <library_visual_scenes>
    <visual_scene id="Scene" name="Scene">
      <node id="Cube_001" name="Cube_001" type="NODE">
        <matrix sid="transform">1.558151 0 0 0 0 1.558151 0 0 0 0 1.558151 0 0 0 0 1</matrix>
        <instance_geometry url="#Cube_001-mesh" name="Cube_001">
          <bind_material>
            <technique_common>
              <instance_material symbol="vermelho_001-material" target="#vermelho_001-material"/>
              <instance_material symbol="semente_001-material" target="#semente_001-material"/>
            </technique_common>
          </bind_material>
        </instance_geometry>
      </node>
    </visual_scene>
  </library_visual_scenes>
  <scene>
    <instance_visual_scene url="#Scene"/>
  </scene>
</COLLADA>